G04 #@! TF.FileFunction,Copper,L2,Bot,Signal*
%FSLAX46Y46*%
G04 Gerber Fmt 4.6, Leading zero omitted, Abs format (unit mm)*
G04 Created by KiCad (PCBNEW 4.0.0-rc2-stable) date 30/11/2015 5:24:16 p. m.*
%MOMM*%
G01*
G04 APERTURE LIST*
%ADD10C,0.100000*%
%ADD11C,0.300000*%
%ADD12R,1.300000X1.300000*%
%ADD13C,1.300000*%
%ADD14C,1.699260*%
%ADD15R,1.699260X1.699260*%
%ADD16R,2.540000X2.540000*%
%ADD17C,2.540000*%
%ADD18R,2.000000X2.000000*%
%ADD19C,2.000000*%
%ADD20C,1.651000*%
%ADD21C,0.812800*%
G04 APERTURE END LIST*
D10*
D11*
X151164999Y-117367857D02*
X150664999Y-117367857D01*
X150450713Y-118153571D02*
X151164999Y-118153571D01*
X151164999Y-116653571D01*
X150450713Y-116653571D01*
X149807856Y-117153571D02*
X149807856Y-118439286D01*
X149879285Y-118582143D01*
X150022142Y-118653571D01*
X150093570Y-118653571D01*
X149807856Y-116653571D02*
X149879285Y-116725000D01*
X149807856Y-116796429D01*
X149736428Y-116725000D01*
X149807856Y-116653571D01*
X149807856Y-116796429D01*
X148522142Y-118082143D02*
X148664999Y-118153571D01*
X148950713Y-118153571D01*
X149093570Y-118082143D01*
X149164999Y-117939286D01*
X149164999Y-117367857D01*
X149093570Y-117225000D01*
X148950713Y-117153571D01*
X148664999Y-117153571D01*
X148522142Y-117225000D01*
X148450713Y-117367857D01*
X148450713Y-117510714D01*
X149164999Y-117653571D01*
X147807856Y-118153571D02*
X147807856Y-117153571D01*
X147807856Y-117439286D02*
X147736428Y-117296429D01*
X147664999Y-117225000D01*
X147522142Y-117153571D01*
X147379285Y-117153571D01*
X146236428Y-118082143D02*
X146379285Y-118153571D01*
X146664999Y-118153571D01*
X146807857Y-118082143D01*
X146879285Y-118010714D01*
X146950714Y-117867857D01*
X146950714Y-117439286D01*
X146879285Y-117296429D01*
X146807857Y-117225000D01*
X146664999Y-117153571D01*
X146379285Y-117153571D01*
X146236428Y-117225000D01*
X145593571Y-118153571D02*
X145593571Y-117153571D01*
X145593571Y-116653571D02*
X145665000Y-116725000D01*
X145593571Y-116796429D01*
X145522143Y-116725000D01*
X145593571Y-116653571D01*
X145593571Y-116796429D01*
X144236428Y-118082143D02*
X144379285Y-118153571D01*
X144664999Y-118153571D01*
X144807857Y-118082143D01*
X144879285Y-118010714D01*
X144950714Y-117867857D01*
X144950714Y-117439286D01*
X144879285Y-117296429D01*
X144807857Y-117225000D01*
X144664999Y-117153571D01*
X144379285Y-117153571D01*
X144236428Y-117225000D01*
X143593571Y-118153571D02*
X143593571Y-117153571D01*
X143593571Y-116653571D02*
X143665000Y-116725000D01*
X143593571Y-116796429D01*
X143522143Y-116725000D01*
X143593571Y-116653571D01*
X143593571Y-116796429D01*
X142664999Y-118153571D02*
X142807857Y-118082143D01*
X142879285Y-118010714D01*
X142950714Y-117867857D01*
X142950714Y-117439286D01*
X142879285Y-117296429D01*
X142807857Y-117225000D01*
X142664999Y-117153571D01*
X142450714Y-117153571D01*
X142307857Y-117225000D01*
X142236428Y-117296429D01*
X142164999Y-117439286D01*
X142164999Y-117867857D01*
X142236428Y-118010714D01*
X142307857Y-118082143D01*
X142450714Y-118153571D01*
X142664999Y-118153571D01*
X139593571Y-118153571D02*
X140450714Y-118153571D01*
X140022142Y-118153571D02*
X140022142Y-116653571D01*
X140164999Y-116867857D01*
X140307857Y-117010714D01*
X140450714Y-117082143D01*
D12*
X157480000Y-106680000D03*
D13*
X162480000Y-106680000D03*
D14*
X163195520Y-115567460D03*
D15*
X153035520Y-115567460D03*
D16*
X145415000Y-103505000D03*
D17*
X145415000Y-108585000D03*
X145415000Y-113665000D03*
D18*
X160020000Y-102870000D03*
D19*
X157480000Y-102870000D03*
D20*
X168275000Y-105410000D03*
X168275000Y-113030000D03*
X155575000Y-111125000D03*
X163195000Y-111125000D03*
X164465000Y-102235000D03*
X168275000Y-102235000D03*
D21*
X157480000Y-102870000D02*
X157480000Y-106680000D01*
X156845000Y-103505000D02*
X157480000Y-102870000D01*
X145415000Y-103505000D02*
X153670000Y-103505000D01*
X154305000Y-102870000D02*
X157480000Y-102870000D01*
X153670000Y-103505000D02*
X154305000Y-102870000D01*
X160020000Y-102870000D02*
X160020000Y-105410000D01*
X161290000Y-106680000D02*
X162480000Y-106680000D01*
X160020000Y-105410000D02*
X161290000Y-106680000D01*
X155575000Y-111125000D02*
X158750000Y-111125000D01*
X158750000Y-111125000D02*
X162480000Y-107395000D01*
X162480000Y-107395000D02*
X162480000Y-106680000D01*
X168275000Y-105410000D02*
X168275000Y-102235000D01*
X163830000Y-102870000D02*
X160020000Y-102870000D01*
X164465000Y-102235000D02*
X163830000Y-102870000D01*
X160495000Y-102870000D02*
X160020000Y-102870000D01*
X168275000Y-113030000D02*
X166370000Y-111125000D01*
X166370000Y-111125000D02*
X163195000Y-111125000D01*
X163195520Y-115567460D02*
X165737540Y-115567460D01*
X165737540Y-115567460D02*
X168275000Y-113030000D01*
X145415000Y-113665000D02*
X151130000Y-113665000D01*
X151130000Y-113665000D02*
X153032460Y-115567460D01*
X153032460Y-115567460D02*
X153035520Y-115567460D01*
M02*
