G04 #@! TF.FileFunction,Legend,Top*
%FSLAX46Y46*%
G04 Gerber Fmt 4.6, Leading zero omitted, Abs format (unit mm)*
G04 Created by KiCad (PCBNEW 4.0.0-rc1-stable) date 30/11/2015 17:14:41*
%MOMM*%
G01*
G04 APERTURE LIST*
%ADD10C,0.100000*%
%ADD11C,0.150000*%
G04 APERTURE END LIST*
D10*
D11*
X154305000Y-104775000D02*
X154305000Y-121920000D01*
X182880000Y-104775000D02*
X154305000Y-104775000D01*
X182880000Y-121920000D02*
X182880000Y-104775000D01*
X154305000Y-121920000D02*
X182880000Y-121920000D01*
X172450000Y-116685000D02*
X165450000Y-116685000D01*
X165450000Y-116685000D02*
X165450000Y-113185000D01*
X165450000Y-113185000D02*
X172450000Y-113185000D01*
X172450000Y-113185000D02*
X172450000Y-116685000D01*
X169109000Y-106636000D02*
X169109000Y-106836000D01*
X169109000Y-109230000D02*
X169109000Y-109050000D01*
X165881256Y-108919643D02*
G75*
G03X169109000Y-109236000I1727744J1003643D01*
G01*
X166556994Y-109049068D02*
G75*
G03X168660000Y-109050000I1052006J1133068D01*
G01*
X169096220Y-106609274D02*
G75*
G03X165859000Y-106956000I-1497220J-1306726D01*
G01*
X168622889Y-106836747D02*
G75*
G03X166575000Y-106856000I-1013889J-1079253D01*
G01*
X173736520Y-120012460D02*
X175133520Y-120012460D01*
X169291520Y-120012460D02*
X167767520Y-120012460D01*
X169672520Y-119250460D02*
X169672520Y-120774460D01*
X169418520Y-119250460D02*
X169418520Y-120774460D01*
X169164520Y-120012460D02*
X169164520Y-120774460D01*
X169164520Y-120774460D02*
X173736520Y-120774460D01*
X173736520Y-120774460D02*
X173736520Y-119250460D01*
X173736520Y-119250460D02*
X169164520Y-119250460D01*
X169164520Y-119250460D02*
X169164520Y-120012460D01*
X154795000Y-105410000D02*
X162415000Y-105410000D01*
X154795000Y-120650000D02*
X162415000Y-120650000D01*
X156065000Y-105410000D02*
X156065000Y-120650000D01*
X162415000Y-105410000D02*
X162415000Y-120650000D01*
X154795000Y-105410000D02*
X154795000Y-120650000D01*
X176530000Y-109220000D02*
X176530000Y-109728000D01*
X176530000Y-116840000D02*
X176530000Y-116332000D01*
X176530000Y-116332000D02*
X177546000Y-116332000D01*
X177546000Y-116332000D02*
X177546000Y-109728000D01*
X177546000Y-109728000D02*
X175514000Y-109728000D01*
X175514000Y-109728000D02*
X175514000Y-116332000D01*
X175514000Y-116332000D02*
X176530000Y-116332000D01*
X177038000Y-109728000D02*
X177546000Y-110236000D01*
X180340000Y-109220000D02*
X180340000Y-109728000D01*
X180340000Y-116840000D02*
X180340000Y-116332000D01*
X180340000Y-116332000D02*
X181356000Y-116332000D01*
X181356000Y-116332000D02*
X181356000Y-109728000D01*
X181356000Y-109728000D02*
X179324000Y-109728000D01*
X179324000Y-109728000D02*
X179324000Y-116332000D01*
X179324000Y-116332000D02*
X180340000Y-116332000D01*
X180848000Y-109728000D02*
X181356000Y-110236000D01*
X171283334Y-112117143D02*
X171235715Y-112164762D01*
X171092858Y-112212381D01*
X170997620Y-112212381D01*
X170854762Y-112164762D01*
X170759524Y-112069524D01*
X170711905Y-111974286D01*
X170664286Y-111783810D01*
X170664286Y-111640952D01*
X170711905Y-111450476D01*
X170759524Y-111355238D01*
X170854762Y-111260000D01*
X170997620Y-111212381D01*
X171092858Y-111212381D01*
X171235715Y-111260000D01*
X171283334Y-111307619D01*
X172235715Y-112212381D02*
X171664286Y-112212381D01*
X171950000Y-112212381D02*
X171950000Y-111212381D01*
X171854762Y-111355238D01*
X171759524Y-111450476D01*
X171664286Y-111498095D01*
X163091905Y-106497381D02*
X163091905Y-105497381D01*
X163330000Y-105497381D01*
X163472858Y-105545000D01*
X163568096Y-105640238D01*
X163615715Y-105735476D01*
X163663334Y-105925952D01*
X163663334Y-106068810D01*
X163615715Y-106259286D01*
X163568096Y-106354524D01*
X163472858Y-106449762D01*
X163330000Y-106497381D01*
X163091905Y-106497381D01*
X164615715Y-106497381D02*
X164044286Y-106497381D01*
X164330000Y-106497381D02*
X164330000Y-105497381D01*
X164234762Y-105640238D01*
X164139524Y-105735476D01*
X164044286Y-105783095D01*
X170338095Y-106662381D02*
X170338095Y-105662381D01*
X170909524Y-106662381D02*
X170480952Y-106090952D01*
X170909524Y-105662381D02*
X170338095Y-106233810D01*
X170711905Y-118562381D02*
X170711905Y-117562381D01*
X170950000Y-117562381D01*
X171092858Y-117610000D01*
X171188096Y-117705238D01*
X171235715Y-117800476D01*
X171283334Y-117990952D01*
X171283334Y-118133810D01*
X171235715Y-118324286D01*
X171188096Y-118419524D01*
X171092858Y-118514762D01*
X170950000Y-118562381D01*
X170711905Y-118562381D01*
X171664286Y-117657619D02*
X171711905Y-117610000D01*
X171807143Y-117562381D01*
X172045239Y-117562381D01*
X172140477Y-117610000D01*
X172188096Y-117657619D01*
X172235715Y-117752857D01*
X172235715Y-117848095D01*
X172188096Y-117990952D01*
X171616667Y-118562381D01*
X172235715Y-118562381D01*
X164137381Y-113768095D02*
X163137381Y-113768095D01*
X164137381Y-113196666D02*
X163565952Y-113625238D01*
X163137381Y-113196666D02*
X163708810Y-113768095D01*
X164137381Y-112244285D02*
X164137381Y-112815714D01*
X164137381Y-112530000D02*
X163137381Y-112530000D01*
X163280238Y-112625238D01*
X163375476Y-112720476D01*
X163423095Y-112815714D01*
X176982381Y-106211666D02*
X176506190Y-106545000D01*
X176982381Y-106783095D02*
X175982381Y-106783095D01*
X175982381Y-106402142D01*
X176030000Y-106306904D01*
X176077619Y-106259285D01*
X176172857Y-106211666D01*
X176315714Y-106211666D01*
X176410952Y-106259285D01*
X176458571Y-106306904D01*
X176506190Y-106402142D01*
X176506190Y-106783095D01*
X176982381Y-105259285D02*
X176982381Y-105830714D01*
X176982381Y-105545000D02*
X175982381Y-105545000D01*
X176125238Y-105640238D01*
X176220476Y-105735476D01*
X176268095Y-105830714D01*
X180792381Y-106211666D02*
X180316190Y-106545000D01*
X180792381Y-106783095D02*
X179792381Y-106783095D01*
X179792381Y-106402142D01*
X179840000Y-106306904D01*
X179887619Y-106259285D01*
X179982857Y-106211666D01*
X180125714Y-106211666D01*
X180220952Y-106259285D01*
X180268571Y-106306904D01*
X180316190Y-106402142D01*
X180316190Y-106783095D01*
X179887619Y-105830714D02*
X179840000Y-105783095D01*
X179792381Y-105687857D01*
X179792381Y-105449761D01*
X179840000Y-105354523D01*
X179887619Y-105306904D01*
X179982857Y-105259285D01*
X180078095Y-105259285D01*
X180220952Y-105306904D01*
X180792381Y-105878333D01*
X180792381Y-105259285D01*
M02*
