G04 #@! TF.FileFunction,Other,ECO2*
%FSLAX46Y46*%
G04 Gerber Fmt 4.6, Leading zero omitted, Abs format (unit mm)*
G04 Created by KiCad (PCBNEW 4.0.0-rc1-stable) date 30/11/2015 17:14:41*
%MOMM*%
G01*
G04 APERTURE LIST*
%ADD10C,0.100000*%
%ADD11C,0.300000*%
%ADD12C,0.150000*%
G04 APERTURE END LIST*
D10*
D11*
X162949644Y-99571429D02*
X163021073Y-99500000D01*
X163163930Y-99428571D01*
X163521073Y-99428571D01*
X163663930Y-99500000D01*
X163735359Y-99571429D01*
X163806787Y-99714286D01*
X163806787Y-99857143D01*
X163735359Y-100071429D01*
X162878216Y-100928571D01*
X163806787Y-100928571D01*
X164663930Y-100071429D02*
X164521072Y-100000000D01*
X164449644Y-99928571D01*
X164378215Y-99785714D01*
X164378215Y-99714286D01*
X164449644Y-99571429D01*
X164521072Y-99500000D01*
X164663930Y-99428571D01*
X164949644Y-99428571D01*
X165092501Y-99500000D01*
X165163930Y-99571429D01*
X165235358Y-99714286D01*
X165235358Y-99785714D01*
X165163930Y-99928571D01*
X165092501Y-100000000D01*
X164949644Y-100071429D01*
X164663930Y-100071429D01*
X164521072Y-100142857D01*
X164449644Y-100214286D01*
X164378215Y-100357143D01*
X164378215Y-100642857D01*
X164449644Y-100785714D01*
X164521072Y-100857143D01*
X164663930Y-100928571D01*
X164949644Y-100928571D01*
X165092501Y-100857143D01*
X165163930Y-100785714D01*
X165235358Y-100642857D01*
X165235358Y-100357143D01*
X165163930Y-100214286D01*
X165092501Y-100142857D01*
X164949644Y-100071429D01*
X165949643Y-100857143D02*
X165949643Y-100928571D01*
X165878215Y-101071429D01*
X165806786Y-101142857D01*
X167306787Y-99428571D02*
X166592501Y-99428571D01*
X166521072Y-100142857D01*
X166592501Y-100071429D01*
X166735358Y-100000000D01*
X167092501Y-100000000D01*
X167235358Y-100071429D01*
X167306787Y-100142857D01*
X167378215Y-100285714D01*
X167378215Y-100642857D01*
X167306787Y-100785714D01*
X167235358Y-100857143D01*
X167092501Y-100928571D01*
X166735358Y-100928571D01*
X166592501Y-100857143D01*
X166521072Y-100785714D01*
X167878215Y-99428571D02*
X168878215Y-99428571D01*
X168235358Y-100928571D01*
X170163929Y-99428571D02*
X169449643Y-99428571D01*
X169378214Y-100142857D01*
X169449643Y-100071429D01*
X169592500Y-100000000D01*
X169949643Y-100000000D01*
X170092500Y-100071429D01*
X170163929Y-100142857D01*
X170235357Y-100285714D01*
X170235357Y-100642857D01*
X170163929Y-100785714D01*
X170092500Y-100857143D01*
X169949643Y-100928571D01*
X169592500Y-100928571D01*
X169449643Y-100857143D01*
X169378214Y-100785714D01*
X170878214Y-100928571D02*
X170878214Y-99928571D01*
X170878214Y-100071429D02*
X170949642Y-100000000D01*
X171092500Y-99928571D01*
X171306785Y-99928571D01*
X171449642Y-100000000D01*
X171521071Y-100142857D01*
X171521071Y-100928571D01*
X171521071Y-100142857D02*
X171592500Y-100000000D01*
X171735357Y-99928571D01*
X171949642Y-99928571D01*
X172092500Y-100000000D01*
X172163928Y-100142857D01*
X172163928Y-100928571D01*
X172878214Y-100928571D02*
X172878214Y-99928571D01*
X172878214Y-100071429D02*
X172949642Y-100000000D01*
X173092500Y-99928571D01*
X173306785Y-99928571D01*
X173449642Y-100000000D01*
X173521071Y-100142857D01*
X173521071Y-100928571D01*
X173521071Y-100142857D02*
X173592500Y-100000000D01*
X173735357Y-99928571D01*
X173949642Y-99928571D01*
X174092500Y-100000000D01*
X174163928Y-100142857D01*
X174163928Y-100928571D01*
X182880000Y-101600000D02*
X154305000Y-101600000D01*
X182880000Y-104140000D02*
X182880000Y-98900000D01*
X154305000Y-104140000D02*
X154305000Y-98900000D01*
X154305000Y-101600000D02*
X155431504Y-101013579D01*
X154305000Y-101600000D02*
X155431504Y-102186421D01*
X182880000Y-101600000D02*
X181753496Y-101013579D01*
X182880000Y-101600000D02*
X181753496Y-102186421D01*
X187076282Y-108659350D02*
X187076282Y-107802207D01*
X187076282Y-108230779D02*
X188576282Y-108230779D01*
X188361996Y-108087922D01*
X188219139Y-107945064D01*
X188147710Y-107802207D01*
X188576282Y-109945064D02*
X188576282Y-109659350D01*
X188504853Y-109516493D01*
X188433424Y-109445064D01*
X188219139Y-109302207D01*
X187933424Y-109230778D01*
X187361996Y-109230778D01*
X187219139Y-109302207D01*
X187147710Y-109373635D01*
X187076282Y-109516493D01*
X187076282Y-109802207D01*
X187147710Y-109945064D01*
X187219139Y-110016493D01*
X187361996Y-110087921D01*
X187719139Y-110087921D01*
X187861996Y-110016493D01*
X187933424Y-109945064D01*
X188004853Y-109802207D01*
X188004853Y-109516493D01*
X187933424Y-109373635D01*
X187861996Y-109302207D01*
X187719139Y-109230778D01*
X187147710Y-110802206D02*
X187076282Y-110802206D01*
X186933424Y-110730778D01*
X186861996Y-110659349D01*
X187076282Y-111516492D02*
X187076282Y-111802207D01*
X187147710Y-111945064D01*
X187219139Y-112016492D01*
X187433424Y-112159350D01*
X187719139Y-112230778D01*
X188290567Y-112230778D01*
X188433424Y-112159350D01*
X188504853Y-112087921D01*
X188576282Y-111945064D01*
X188576282Y-111659350D01*
X188504853Y-111516492D01*
X188433424Y-111445064D01*
X188290567Y-111373635D01*
X187933424Y-111373635D01*
X187790567Y-111445064D01*
X187719139Y-111516492D01*
X187647710Y-111659350D01*
X187647710Y-111945064D01*
X187719139Y-112087921D01*
X187790567Y-112159350D01*
X187933424Y-112230778D01*
X188576282Y-113587921D02*
X188576282Y-112873635D01*
X187861996Y-112802206D01*
X187933424Y-112873635D01*
X188004853Y-113016492D01*
X188004853Y-113373635D01*
X187933424Y-113516492D01*
X187861996Y-113587921D01*
X187719139Y-113659349D01*
X187361996Y-113659349D01*
X187219139Y-113587921D01*
X187147710Y-113516492D01*
X187076282Y-113373635D01*
X187076282Y-113016492D01*
X187147710Y-112873635D01*
X187219139Y-112802206D01*
X188576282Y-114587920D02*
X188576282Y-114730777D01*
X188504853Y-114873634D01*
X188433424Y-114945063D01*
X188290567Y-115016492D01*
X188004853Y-115087920D01*
X187647710Y-115087920D01*
X187361996Y-115016492D01*
X187219139Y-114945063D01*
X187147710Y-114873634D01*
X187076282Y-114730777D01*
X187076282Y-114587920D01*
X187147710Y-114445063D01*
X187219139Y-114373634D01*
X187361996Y-114302206D01*
X187647710Y-114230777D01*
X188004853Y-114230777D01*
X188290567Y-114302206D01*
X188433424Y-114373634D01*
X188504853Y-114445063D01*
X188576282Y-114587920D01*
X187076282Y-115730777D02*
X188076282Y-115730777D01*
X187933424Y-115730777D02*
X188004853Y-115802205D01*
X188076282Y-115945063D01*
X188076282Y-116159348D01*
X188004853Y-116302205D01*
X187861996Y-116373634D01*
X187076282Y-116373634D01*
X187861996Y-116373634D02*
X188004853Y-116445063D01*
X188076282Y-116587920D01*
X188076282Y-116802205D01*
X188004853Y-116945063D01*
X187861996Y-117016491D01*
X187076282Y-117016491D01*
X187076282Y-117730777D02*
X188076282Y-117730777D01*
X187933424Y-117730777D02*
X188004853Y-117802205D01*
X188076282Y-117945063D01*
X188076282Y-118159348D01*
X188004853Y-118302205D01*
X187861996Y-118373634D01*
X187076282Y-118373634D01*
X187861996Y-118373634D02*
X188004853Y-118445063D01*
X188076282Y-118587920D01*
X188076282Y-118802205D01*
X188004853Y-118945063D01*
X187861996Y-119016491D01*
X187076282Y-119016491D01*
X186404853Y-104970127D02*
X186404853Y-121920000D01*
X183864853Y-104970127D02*
X189104853Y-104970127D01*
X183864853Y-121920000D02*
X189104853Y-121920000D01*
X186404853Y-121920000D02*
X185818432Y-120793496D01*
X186404853Y-121920000D02*
X186991274Y-120793496D01*
X186404853Y-104970127D02*
X185818432Y-106096631D01*
X186404853Y-104970127D02*
X186991274Y-106096631D01*
D12*
X154305000Y-104775000D02*
X154305000Y-121920000D01*
X182880000Y-104775000D02*
X154305000Y-104775000D01*
X182880000Y-121920000D02*
X182880000Y-104775000D01*
X154305000Y-121920000D02*
X182880000Y-121920000D01*
M02*
