G04 #@! TF.FileFunction,Legend,Top*
%FSLAX46Y46*%
G04 Gerber Fmt 4.6, Leading zero omitted, Abs format (unit mm)*
G04 Created by KiCad (PCBNEW 4.0.0-rc1-stable) date 30/11/2015 17:09:56*
%MOMM*%
G01*
G04 APERTURE LIST*
%ADD10C,0.100000*%
%ADD11C,0.150000*%
%ADD12C,0.300000*%
G04 APERTURE END LIST*
D10*
D11*
X151384000Y-104648000D02*
X127000000Y-104648000D01*
X151384000Y-88392000D02*
X151384000Y-104648000D01*
X127000000Y-88392000D02*
X151384000Y-88392000D01*
D12*
X138894572Y-103524857D02*
X139394572Y-103524857D01*
X139608858Y-104310571D02*
X138894572Y-104310571D01*
X138894572Y-102810571D01*
X139608858Y-102810571D01*
X140251715Y-104310571D02*
X140251715Y-102810571D01*
X140251715Y-103524857D02*
X141108858Y-103524857D01*
X141108858Y-104310571D02*
X141108858Y-102810571D01*
X141751715Y-104239143D02*
X141966001Y-104310571D01*
X142323144Y-104310571D01*
X142466001Y-104239143D01*
X142537430Y-104167714D01*
X142608858Y-104024857D01*
X142608858Y-103882000D01*
X142537430Y-103739143D01*
X142466001Y-103667714D01*
X142323144Y-103596286D01*
X142037430Y-103524857D01*
X141894572Y-103453429D01*
X141823144Y-103382000D01*
X141751715Y-103239143D01*
X141751715Y-103096286D01*
X141823144Y-102953429D01*
X141894572Y-102882000D01*
X142037430Y-102810571D01*
X142394572Y-102810571D01*
X142608858Y-102882000D01*
D11*
X127000000Y-104648000D02*
X127000000Y-88392000D01*
X142224000Y-98778000D02*
X135224000Y-98778000D01*
X135224000Y-98778000D02*
X135224000Y-95278000D01*
X135224000Y-95278000D02*
X142224000Y-95278000D01*
X142224000Y-95278000D02*
X142224000Y-98778000D01*
X143510520Y-101597460D02*
X144907520Y-101597460D01*
X139065520Y-101597460D02*
X137541520Y-101597460D01*
X139446520Y-100835460D02*
X139446520Y-102359460D01*
X139192520Y-100835460D02*
X139192520Y-102359460D01*
X138938520Y-101597460D02*
X138938520Y-102359460D01*
X138938520Y-102359460D02*
X143510520Y-102359460D01*
X143510520Y-102359460D02*
X143510520Y-100835460D01*
X143510520Y-100835460D02*
X138938520Y-100835460D01*
X138938520Y-100835460D02*
X138938520Y-101597460D01*
X140915000Y-89618000D02*
X140915000Y-89818000D01*
X140915000Y-92212000D02*
X140915000Y-92032000D01*
X137687256Y-91901643D02*
G75*
G03X140915000Y-92218000I1727744J1003643D01*
G01*
X138362994Y-92031068D02*
G75*
G03X140466000Y-92032000I1052006J1133068D01*
G01*
X140902220Y-89591274D02*
G75*
G03X137665000Y-89938000I-1497220J-1306726D01*
G01*
X140428889Y-89818747D02*
G75*
G03X138381000Y-89838000I-1013889J-1079253D01*
G01*
X127000000Y-88900000D02*
X134620000Y-88900000D01*
X127000000Y-104140000D02*
X134620000Y-104140000D01*
X128270000Y-88900000D02*
X128270000Y-104140000D01*
X134620000Y-88900000D02*
X134620000Y-104140000D01*
X127000000Y-88900000D02*
X127000000Y-104140000D01*
X146304000Y-91186000D02*
X146304000Y-91694000D01*
X146304000Y-98806000D02*
X146304000Y-98298000D01*
X146304000Y-98298000D02*
X147320000Y-98298000D01*
X147320000Y-98298000D02*
X147320000Y-91694000D01*
X147320000Y-91694000D02*
X145288000Y-91694000D01*
X145288000Y-91694000D02*
X145288000Y-98298000D01*
X145288000Y-98298000D02*
X146304000Y-98298000D01*
X146812000Y-91694000D02*
X147320000Y-92202000D01*
X149860000Y-91186000D02*
X149860000Y-91694000D01*
X149860000Y-98806000D02*
X149860000Y-98298000D01*
X149860000Y-98298000D02*
X150876000Y-98298000D01*
X150876000Y-98298000D02*
X150876000Y-91694000D01*
X150876000Y-91694000D02*
X148844000Y-91694000D01*
X148844000Y-91694000D02*
X148844000Y-98298000D01*
X148844000Y-98298000D02*
X149860000Y-98298000D01*
X150368000Y-91694000D02*
X150876000Y-92202000D01*
X138517334Y-94845143D02*
X138469715Y-94892762D01*
X138326858Y-94940381D01*
X138231620Y-94940381D01*
X138088762Y-94892762D01*
X137993524Y-94797524D01*
X137945905Y-94702286D01*
X137898286Y-94511810D01*
X137898286Y-94368952D01*
X137945905Y-94178476D01*
X137993524Y-94083238D01*
X138088762Y-93988000D01*
X138231620Y-93940381D01*
X138326858Y-93940381D01*
X138469715Y-93988000D01*
X138517334Y-94035619D01*
X139469715Y-94940381D02*
X138898286Y-94940381D01*
X139184000Y-94940381D02*
X139184000Y-93940381D01*
X139088762Y-94083238D01*
X138993524Y-94178476D01*
X138898286Y-94226095D01*
X140485905Y-100528381D02*
X140485905Y-99528381D01*
X140724000Y-99528381D01*
X140866858Y-99576000D01*
X140962096Y-99671238D01*
X141009715Y-99766476D01*
X141057334Y-99956952D01*
X141057334Y-100099810D01*
X141009715Y-100290286D01*
X140962096Y-100385524D01*
X140866858Y-100480762D01*
X140724000Y-100528381D01*
X140485905Y-100528381D01*
X142009715Y-100528381D02*
X141438286Y-100528381D01*
X141724000Y-100528381D02*
X141724000Y-99528381D01*
X141628762Y-99671238D01*
X141533524Y-99766476D01*
X141438286Y-99814095D01*
X142517905Y-89860381D02*
X142517905Y-88860381D01*
X142756000Y-88860381D01*
X142898858Y-88908000D01*
X142994096Y-89003238D01*
X143041715Y-89098476D01*
X143089334Y-89288952D01*
X143089334Y-89431810D01*
X143041715Y-89622286D01*
X142994096Y-89717524D01*
X142898858Y-89812762D01*
X142756000Y-89860381D01*
X142517905Y-89860381D01*
X143470286Y-88955619D02*
X143517905Y-88908000D01*
X143613143Y-88860381D01*
X143851239Y-88860381D01*
X143946477Y-88908000D01*
X143994096Y-88955619D01*
X144041715Y-89050857D01*
X144041715Y-89146095D01*
X143994096Y-89288952D01*
X143422667Y-89860381D01*
X144041715Y-89860381D01*
X134897905Y-93416381D02*
X134897905Y-92416381D01*
X135469334Y-93416381D02*
X135040762Y-92844952D01*
X135469334Y-92416381D02*
X134897905Y-92987810D01*
X136421715Y-93416381D02*
X135850286Y-93416381D01*
X136136000Y-93416381D02*
X136136000Y-92416381D01*
X136040762Y-92559238D01*
X135945524Y-92654476D01*
X135850286Y-92702095D01*
X146137334Y-89860381D02*
X145804000Y-89384190D01*
X145565905Y-89860381D02*
X145565905Y-88860381D01*
X145946858Y-88860381D01*
X146042096Y-88908000D01*
X146089715Y-88955619D01*
X146137334Y-89050857D01*
X146137334Y-89193714D01*
X146089715Y-89288952D01*
X146042096Y-89336571D01*
X145946858Y-89384190D01*
X145565905Y-89384190D01*
X147089715Y-89860381D02*
X146518286Y-89860381D01*
X146804000Y-89860381D02*
X146804000Y-88860381D01*
X146708762Y-89003238D01*
X146613524Y-89098476D01*
X146518286Y-89146095D01*
X149693334Y-89860381D02*
X149360000Y-89384190D01*
X149121905Y-89860381D02*
X149121905Y-88860381D01*
X149502858Y-88860381D01*
X149598096Y-88908000D01*
X149645715Y-88955619D01*
X149693334Y-89050857D01*
X149693334Y-89193714D01*
X149645715Y-89288952D01*
X149598096Y-89336571D01*
X149502858Y-89384190D01*
X149121905Y-89384190D01*
X150074286Y-88955619D02*
X150121905Y-88908000D01*
X150217143Y-88860381D01*
X150455239Y-88860381D01*
X150550477Y-88908000D01*
X150598096Y-88955619D01*
X150645715Y-89050857D01*
X150645715Y-89146095D01*
X150598096Y-89288952D01*
X150026667Y-89860381D01*
X150645715Y-89860381D01*
M02*
