%FSLAX45Y45*%
G04 Gerber Fmt 4.5, Leading zero omitted, Abs format (unit mm)*
G04 Created by KiCad (PCBNEW 4.0.0-rc2-stable) date 30/11/2015 17:11:42*
%MOMM*%
G01*
G04 APERTURE LIST*
%ADD10C,0.127000*%
%ADD11C,0.150000*%
%ADD12C,0.200000*%
%ADD13C,0.300000*%
G04 APERTURE END LIST*
D10*
D11*
X13843000Y-9969500D02*
X17145000Y-9969500D01*
D12*
X15268500Y-11521694D02*
X15338604Y-11591798D01*
X15338604Y-11521694D02*
X15268500Y-11591798D01*
X16284500Y-11521694D02*
X16354604Y-11591798D01*
X16354604Y-11521694D02*
X16284500Y-11591798D01*
X15724500Y-10731500D02*
G75*
G03X15724500Y-10731500I-40000J0D01*
G01*
X16224500Y-10731500D02*
G75*
G03X16224500Y-10731500I-40000J0D01*
G01*
X15748000Y-11135360D02*
X15748000Y-11216640D01*
X15707360Y-11176000D02*
X15788640Y-11176000D01*
X16446500Y-10182860D02*
X16446500Y-10264140D01*
X16405860Y-10223500D02*
X16487140Y-10223500D01*
X16510000Y-11135360D02*
X16510000Y-11216640D01*
X16469360Y-11176000D02*
X16550640Y-11176000D01*
X16827500Y-10182860D02*
X16827500Y-10264140D01*
X16786860Y-10223500D02*
X16868140Y-10223500D01*
X16827500Y-10500360D02*
X16827500Y-10581640D01*
X16786860Y-10541000D02*
X16868140Y-10541000D01*
X16827500Y-11262360D02*
X16827500Y-11343640D01*
X16786860Y-11303000D02*
X16868140Y-11303000D01*
X15783382Y-10322383D02*
X15783382Y-10251618D01*
X15712617Y-10251618D01*
X15712617Y-10322383D01*
X15783382Y-10322383D01*
X16037382Y-10322383D02*
X16037382Y-10251618D01*
X15966617Y-10251618D01*
X15966617Y-10322383D01*
X16037382Y-10322383D01*
X14541500Y-10426700D02*
X14617700Y-10350500D01*
X14541500Y-10274300D01*
X14465300Y-10350500D01*
X14541500Y-10426700D01*
X14541500Y-10934700D02*
X14617700Y-10858500D01*
X14541500Y-10782300D01*
X14465300Y-10858500D01*
X14541500Y-10934700D01*
X14541500Y-11442700D02*
X14617700Y-11366500D01*
X14541500Y-11290300D01*
X14465300Y-11366500D01*
X14541500Y-11442700D01*
D13*
X14106928Y-10442714D02*
X14106928Y-10142714D01*
X14178357Y-10142714D01*
X14221214Y-10157000D01*
X14249786Y-10185572D01*
X14264071Y-10214143D01*
X14278357Y-10271286D01*
X14278357Y-10314143D01*
X14264071Y-10371286D01*
X14249786Y-10399857D01*
X14221214Y-10428429D01*
X14178357Y-10442714D01*
X14106928Y-10442714D01*
X14406928Y-10442714D02*
X14406928Y-10242714D01*
X14406928Y-10299857D02*
X14421214Y-10271286D01*
X14435500Y-10257000D01*
X14464071Y-10242714D01*
X14492643Y-10242714D01*
X14592643Y-10442714D02*
X14592643Y-10242714D01*
X14592643Y-10142714D02*
X14578357Y-10157000D01*
X14592643Y-10171286D01*
X14606928Y-10157000D01*
X14592643Y-10142714D01*
X14592643Y-10171286D01*
X14778357Y-10442714D02*
X14749786Y-10428429D01*
X14735500Y-10399857D01*
X14735500Y-10142714D01*
X14935500Y-10442714D02*
X14906928Y-10428429D01*
X14892643Y-10399857D01*
X14892643Y-10142714D01*
X15278357Y-10442714D02*
X15278357Y-10142714D01*
X15378357Y-10357000D01*
X15478357Y-10142714D01*
X15478357Y-10442714D01*
X15749786Y-10442714D02*
X15749786Y-10285572D01*
X15735500Y-10257000D01*
X15706928Y-10242714D01*
X15649786Y-10242714D01*
X15621214Y-10257000D01*
X15749786Y-10428429D02*
X15721214Y-10442714D01*
X15649786Y-10442714D01*
X15621214Y-10428429D01*
X15606928Y-10399857D01*
X15606928Y-10371286D01*
X15621214Y-10342714D01*
X15649786Y-10328429D01*
X15721214Y-10328429D01*
X15749786Y-10314143D01*
X15892643Y-10242714D02*
X15892643Y-10542714D01*
X15892643Y-10257000D02*
X15921214Y-10242714D01*
X15978357Y-10242714D01*
X16006928Y-10257000D01*
X16021214Y-10271286D01*
X16035500Y-10299857D01*
X16035500Y-10385572D01*
X16021214Y-10414143D01*
X16006928Y-10428429D01*
X15978357Y-10442714D01*
X15921214Y-10442714D01*
X15892643Y-10428429D01*
X16164071Y-10414143D02*
X16178357Y-10428429D01*
X16164071Y-10442714D01*
X16149786Y-10428429D01*
X16164071Y-10414143D01*
X16164071Y-10442714D01*
X16164071Y-10257000D02*
X16178357Y-10271286D01*
X16164071Y-10285572D01*
X16149786Y-10271286D01*
X16164071Y-10257000D01*
X16164071Y-10285572D01*
X13765396Y-10901948D02*
X13835500Y-10972052D01*
X13835500Y-10901948D02*
X13765396Y-10972052D01*
X14164071Y-10772714D02*
X14192643Y-10772714D01*
X14221214Y-10787000D01*
X14235500Y-10801286D01*
X14249786Y-10829857D01*
X14264071Y-10887000D01*
X14264071Y-10958429D01*
X14249786Y-11015572D01*
X14235500Y-11044143D01*
X14221214Y-11058429D01*
X14192643Y-11072714D01*
X14164071Y-11072714D01*
X14135500Y-11058429D01*
X14121214Y-11044143D01*
X14106928Y-11015572D01*
X14092643Y-10958429D01*
X14092643Y-10887000D01*
X14106928Y-10829857D01*
X14121214Y-10801286D01*
X14135500Y-10787000D01*
X14164071Y-10772714D01*
X14392643Y-11044143D02*
X14406928Y-11058429D01*
X14392643Y-11072714D01*
X14378357Y-11058429D01*
X14392643Y-11044143D01*
X14392643Y-11072714D01*
X14506928Y-10772714D02*
X14706928Y-10772714D01*
X14578357Y-11072714D01*
X14878357Y-10772714D02*
X14906928Y-10772714D01*
X14935500Y-10787000D01*
X14949786Y-10801286D01*
X14964071Y-10829857D01*
X14978357Y-10887000D01*
X14978357Y-10958429D01*
X14964071Y-11015572D01*
X14949786Y-11044143D01*
X14935500Y-11058429D01*
X14906928Y-11072714D01*
X14878357Y-11072714D01*
X14849786Y-11058429D01*
X14835500Y-11044143D01*
X14821214Y-11015572D01*
X14806928Y-10958429D01*
X14806928Y-10887000D01*
X14821214Y-10829857D01*
X14835500Y-10801286D01*
X14849786Y-10787000D01*
X14878357Y-10772714D01*
X15106928Y-11072714D02*
X15106928Y-10872714D01*
X15106928Y-10901286D02*
X15121214Y-10887000D01*
X15149786Y-10872714D01*
X15192643Y-10872714D01*
X15221214Y-10887000D01*
X15235500Y-10915572D01*
X15235500Y-11072714D01*
X15235500Y-10915572D02*
X15249786Y-10887000D01*
X15278357Y-10872714D01*
X15321214Y-10872714D01*
X15349786Y-10887000D01*
X15364071Y-10915572D01*
X15364071Y-11072714D01*
X15506928Y-11072714D02*
X15506928Y-10872714D01*
X15506928Y-10901286D02*
X15521214Y-10887000D01*
X15549786Y-10872714D01*
X15592643Y-10872714D01*
X15621214Y-10887000D01*
X15635500Y-10915572D01*
X15635500Y-11072714D01*
X15635500Y-10915572D02*
X15649786Y-10887000D01*
X15678357Y-10872714D01*
X15721214Y-10872714D01*
X15749786Y-10887000D01*
X15764071Y-10915572D01*
X15764071Y-11072714D01*
X16349786Y-10758429D02*
X16092643Y-11144143D01*
X16735500Y-10772714D02*
X16764071Y-10772714D01*
X16792643Y-10787000D01*
X16806928Y-10801286D01*
X16821214Y-10829857D01*
X16835500Y-10887000D01*
X16835500Y-10958429D01*
X16821214Y-11015572D01*
X16806928Y-11044143D01*
X16792643Y-11058429D01*
X16764071Y-11072714D01*
X16735500Y-11072714D01*
X16706928Y-11058429D01*
X16692643Y-11044143D01*
X16678357Y-11015572D01*
X16664071Y-10958429D01*
X16664071Y-10887000D01*
X16678357Y-10829857D01*
X16692643Y-10801286D01*
X16706928Y-10787000D01*
X16735500Y-10772714D01*
X16964071Y-11044143D02*
X16978357Y-11058429D01*
X16964071Y-11072714D01*
X16949786Y-11058429D01*
X16964071Y-11044143D01*
X16964071Y-11072714D01*
X17164071Y-10772714D02*
X17192643Y-10772714D01*
X17221214Y-10787000D01*
X17235500Y-10801286D01*
X17249786Y-10829857D01*
X17264071Y-10887000D01*
X17264071Y-10958429D01*
X17249786Y-11015572D01*
X17235500Y-11044143D01*
X17221214Y-11058429D01*
X17192643Y-11072714D01*
X17164071Y-11072714D01*
X17135500Y-11058429D01*
X17121214Y-11044143D01*
X17106928Y-11015572D01*
X17092643Y-10958429D01*
X17092643Y-10887000D01*
X17106928Y-10829857D01*
X17121214Y-10801286D01*
X17135500Y-10787000D01*
X17164071Y-10772714D01*
X17378357Y-10801286D02*
X17392643Y-10787000D01*
X17421214Y-10772714D01*
X17492643Y-10772714D01*
X17521214Y-10787000D01*
X17535500Y-10801286D01*
X17549786Y-10829857D01*
X17549786Y-10858429D01*
X17535500Y-10901286D01*
X17364071Y-11072714D01*
X17549786Y-11072714D01*
X17721214Y-10901286D02*
X17692643Y-10887000D01*
X17678357Y-10872714D01*
X17664071Y-10844143D01*
X17664071Y-10829857D01*
X17678357Y-10801286D01*
X17692643Y-10787000D01*
X17721214Y-10772714D01*
X17778357Y-10772714D01*
X17806928Y-10787000D01*
X17821214Y-10801286D01*
X17835500Y-10829857D01*
X17835500Y-10844143D01*
X17821214Y-10872714D01*
X17806928Y-10887000D01*
X17778357Y-10901286D01*
X17721214Y-10901286D01*
X17692643Y-10915572D01*
X17678357Y-10929857D01*
X17664071Y-10958429D01*
X17664071Y-11015572D01*
X17678357Y-11044143D01*
X17692643Y-11058429D01*
X17721214Y-11072714D01*
X17778357Y-11072714D01*
X17806928Y-11058429D01*
X17821214Y-11044143D01*
X17835500Y-11015572D01*
X17835500Y-10958429D01*
X17821214Y-10929857D01*
X17806928Y-10915572D01*
X17778357Y-10901286D01*
X17949786Y-10772714D02*
X17949786Y-10829857D01*
X18064071Y-10772714D02*
X18064071Y-10829857D01*
X18506928Y-11187000D02*
X18492643Y-11172714D01*
X18464071Y-11129857D01*
X18449786Y-11101286D01*
X18435500Y-11058429D01*
X18421214Y-10987000D01*
X18421214Y-10929857D01*
X18435500Y-10858429D01*
X18449786Y-10815572D01*
X18464071Y-10787000D01*
X18492643Y-10744143D01*
X18506928Y-10729857D01*
X18606928Y-10801286D02*
X18621214Y-10787000D01*
X18649786Y-10772714D01*
X18721214Y-10772714D01*
X18749786Y-10787000D01*
X18764071Y-10801286D01*
X18778357Y-10829857D01*
X18778357Y-10858429D01*
X18764071Y-10901286D01*
X18592643Y-11072714D01*
X18778357Y-11072714D01*
X19135500Y-11072714D02*
X19135500Y-10772714D01*
X19264071Y-11072714D02*
X19264071Y-10915572D01*
X19249786Y-10887000D01*
X19221214Y-10872714D01*
X19178357Y-10872714D01*
X19149786Y-10887000D01*
X19135500Y-10901286D01*
X19449786Y-11072714D02*
X19421214Y-11058429D01*
X19406928Y-11044143D01*
X19392643Y-11015572D01*
X19392643Y-10929857D01*
X19406928Y-10901286D01*
X19421214Y-10887000D01*
X19449786Y-10872714D01*
X19492643Y-10872714D01*
X19521214Y-10887000D01*
X19535500Y-10901286D01*
X19549786Y-10929857D01*
X19549786Y-11015572D01*
X19535500Y-11044143D01*
X19521214Y-11058429D01*
X19492643Y-11072714D01*
X19449786Y-11072714D01*
X19721214Y-11072714D02*
X19692643Y-11058429D01*
X19678357Y-11029857D01*
X19678357Y-10772714D01*
X19949786Y-11058429D02*
X19921214Y-11072714D01*
X19864071Y-11072714D01*
X19835500Y-11058429D01*
X19821214Y-11029857D01*
X19821214Y-10915572D01*
X19835500Y-10887000D01*
X19864071Y-10872714D01*
X19921214Y-10872714D01*
X19949786Y-10887000D01*
X19964071Y-10915572D01*
X19964071Y-10944143D01*
X19821214Y-10972714D01*
X20078357Y-11058429D02*
X20106929Y-11072714D01*
X20164071Y-11072714D01*
X20192643Y-11058429D01*
X20206929Y-11029857D01*
X20206929Y-11015572D01*
X20192643Y-10987000D01*
X20164071Y-10972714D01*
X20121214Y-10972714D01*
X20092643Y-10958429D01*
X20078357Y-10929857D01*
X20078357Y-10915572D01*
X20092643Y-10887000D01*
X20121214Y-10872714D01*
X20164071Y-10872714D01*
X20192643Y-10887000D01*
X20306928Y-11187000D02*
X20321214Y-11172714D01*
X20349786Y-11129857D01*
X20364071Y-11101286D01*
X20378357Y-11058429D01*
X20392643Y-10987000D01*
X20392643Y-10929857D01*
X20378357Y-10858429D01*
X20364071Y-10815572D01*
X20349786Y-10787000D01*
X20321214Y-10744143D01*
X20306928Y-10729857D01*
X13835500Y-11333000D02*
G75*
G03X13835500Y-11333000I-40000J0D01*
G01*
X14164071Y-11168714D02*
X14192643Y-11168714D01*
X14221214Y-11183000D01*
X14235500Y-11197286D01*
X14249786Y-11225857D01*
X14264071Y-11283000D01*
X14264071Y-11354429D01*
X14249786Y-11411571D01*
X14235500Y-11440143D01*
X14221214Y-11454429D01*
X14192643Y-11468714D01*
X14164071Y-11468714D01*
X14135500Y-11454429D01*
X14121214Y-11440143D01*
X14106928Y-11411571D01*
X14092643Y-11354429D01*
X14092643Y-11283000D01*
X14106928Y-11225857D01*
X14121214Y-11197286D01*
X14135500Y-11183000D01*
X14164071Y-11168714D01*
X14392643Y-11440143D02*
X14406928Y-11454429D01*
X14392643Y-11468714D01*
X14378357Y-11454429D01*
X14392643Y-11440143D01*
X14392643Y-11468714D01*
X14578357Y-11297286D02*
X14549786Y-11283000D01*
X14535500Y-11268714D01*
X14521214Y-11240143D01*
X14521214Y-11225857D01*
X14535500Y-11197286D01*
X14549786Y-11183000D01*
X14578357Y-11168714D01*
X14635500Y-11168714D01*
X14664071Y-11183000D01*
X14678357Y-11197286D01*
X14692643Y-11225857D01*
X14692643Y-11240143D01*
X14678357Y-11268714D01*
X14664071Y-11283000D01*
X14635500Y-11297286D01*
X14578357Y-11297286D01*
X14549786Y-11311571D01*
X14535500Y-11325857D01*
X14521214Y-11354429D01*
X14521214Y-11411571D01*
X14535500Y-11440143D01*
X14549786Y-11454429D01*
X14578357Y-11468714D01*
X14635500Y-11468714D01*
X14664071Y-11454429D01*
X14678357Y-11440143D01*
X14692643Y-11411571D01*
X14692643Y-11354429D01*
X14678357Y-11325857D01*
X14664071Y-11311571D01*
X14635500Y-11297286D01*
X14878357Y-11168714D02*
X14906928Y-11168714D01*
X14935500Y-11183000D01*
X14949786Y-11197286D01*
X14964071Y-11225857D01*
X14978357Y-11283000D01*
X14978357Y-11354429D01*
X14964071Y-11411571D01*
X14949786Y-11440143D01*
X14935500Y-11454429D01*
X14906928Y-11468714D01*
X14878357Y-11468714D01*
X14849786Y-11454429D01*
X14835500Y-11440143D01*
X14821214Y-11411571D01*
X14806928Y-11354429D01*
X14806928Y-11283000D01*
X14821214Y-11225857D01*
X14835500Y-11197286D01*
X14849786Y-11183000D01*
X14878357Y-11168714D01*
X15106928Y-11468714D02*
X15106928Y-11268714D01*
X15106928Y-11297286D02*
X15121214Y-11283000D01*
X15149786Y-11268714D01*
X15192643Y-11268714D01*
X15221214Y-11283000D01*
X15235500Y-11311571D01*
X15235500Y-11468714D01*
X15235500Y-11311571D02*
X15249786Y-11283000D01*
X15278357Y-11268714D01*
X15321214Y-11268714D01*
X15349786Y-11283000D01*
X15364071Y-11311571D01*
X15364071Y-11468714D01*
X15506928Y-11468714D02*
X15506928Y-11268714D01*
X15506928Y-11297286D02*
X15521214Y-11283000D01*
X15549786Y-11268714D01*
X15592643Y-11268714D01*
X15621214Y-11283000D01*
X15635500Y-11311571D01*
X15635500Y-11468714D01*
X15635500Y-11311571D02*
X15649786Y-11283000D01*
X15678357Y-11268714D01*
X15721214Y-11268714D01*
X15749786Y-11283000D01*
X15764071Y-11311571D01*
X15764071Y-11468714D01*
X16349786Y-11154429D02*
X16092643Y-11540143D01*
X16735500Y-11168714D02*
X16764071Y-11168714D01*
X16792643Y-11183000D01*
X16806928Y-11197286D01*
X16821214Y-11225857D01*
X16835500Y-11283000D01*
X16835500Y-11354429D01*
X16821214Y-11411571D01*
X16806928Y-11440143D01*
X16792643Y-11454429D01*
X16764071Y-11468714D01*
X16735500Y-11468714D01*
X16706928Y-11454429D01*
X16692643Y-11440143D01*
X16678357Y-11411571D01*
X16664071Y-11354429D01*
X16664071Y-11283000D01*
X16678357Y-11225857D01*
X16692643Y-11197286D01*
X16706928Y-11183000D01*
X16735500Y-11168714D01*
X16964071Y-11440143D02*
X16978357Y-11454429D01*
X16964071Y-11468714D01*
X16949786Y-11454429D01*
X16964071Y-11440143D01*
X16964071Y-11468714D01*
X17164071Y-11168714D02*
X17192643Y-11168714D01*
X17221214Y-11183000D01*
X17235500Y-11197286D01*
X17249786Y-11225857D01*
X17264071Y-11283000D01*
X17264071Y-11354429D01*
X17249786Y-11411571D01*
X17235500Y-11440143D01*
X17221214Y-11454429D01*
X17192643Y-11468714D01*
X17164071Y-11468714D01*
X17135500Y-11454429D01*
X17121214Y-11440143D01*
X17106928Y-11411571D01*
X17092643Y-11354429D01*
X17092643Y-11283000D01*
X17106928Y-11225857D01*
X17121214Y-11197286D01*
X17135500Y-11183000D01*
X17164071Y-11168714D01*
X17364071Y-11168714D02*
X17549786Y-11168714D01*
X17449786Y-11283000D01*
X17492643Y-11283000D01*
X17521214Y-11297286D01*
X17535500Y-11311571D01*
X17549786Y-11340143D01*
X17549786Y-11411571D01*
X17535500Y-11440143D01*
X17521214Y-11454429D01*
X17492643Y-11468714D01*
X17406928Y-11468714D01*
X17378357Y-11454429D01*
X17364071Y-11440143D01*
X17835500Y-11468714D02*
X17664071Y-11468714D01*
X17749786Y-11468714D02*
X17749786Y-11168714D01*
X17721214Y-11211571D01*
X17692643Y-11240143D01*
X17664071Y-11254429D01*
X17949786Y-11168714D02*
X17949786Y-11225857D01*
X18064071Y-11168714D02*
X18064071Y-11225857D01*
X18506928Y-11583000D02*
X18492643Y-11568714D01*
X18464071Y-11525857D01*
X18449786Y-11497286D01*
X18435500Y-11454429D01*
X18421214Y-11383000D01*
X18421214Y-11325857D01*
X18435500Y-11254429D01*
X18449786Y-11211571D01*
X18464071Y-11183000D01*
X18492643Y-11140143D01*
X18506928Y-11125857D01*
X18606928Y-11197286D02*
X18621214Y-11183000D01*
X18649786Y-11168714D01*
X18721214Y-11168714D01*
X18749786Y-11183000D01*
X18764071Y-11197286D01*
X18778357Y-11225857D01*
X18778357Y-11254429D01*
X18764071Y-11297286D01*
X18592643Y-11468714D01*
X18778357Y-11468714D01*
X19135500Y-11468714D02*
X19135500Y-11168714D01*
X19264071Y-11468714D02*
X19264071Y-11311571D01*
X19249786Y-11283000D01*
X19221214Y-11268714D01*
X19178357Y-11268714D01*
X19149786Y-11283000D01*
X19135500Y-11297286D01*
X19449786Y-11468714D02*
X19421214Y-11454429D01*
X19406928Y-11440143D01*
X19392643Y-11411571D01*
X19392643Y-11325857D01*
X19406928Y-11297286D01*
X19421214Y-11283000D01*
X19449786Y-11268714D01*
X19492643Y-11268714D01*
X19521214Y-11283000D01*
X19535500Y-11297286D01*
X19549786Y-11325857D01*
X19549786Y-11411571D01*
X19535500Y-11440143D01*
X19521214Y-11454429D01*
X19492643Y-11468714D01*
X19449786Y-11468714D01*
X19721214Y-11468714D02*
X19692643Y-11454429D01*
X19678357Y-11425857D01*
X19678357Y-11168714D01*
X19949786Y-11454429D02*
X19921214Y-11468714D01*
X19864071Y-11468714D01*
X19835500Y-11454429D01*
X19821214Y-11425857D01*
X19821214Y-11311571D01*
X19835500Y-11283000D01*
X19864071Y-11268714D01*
X19921214Y-11268714D01*
X19949786Y-11283000D01*
X19964071Y-11311571D01*
X19964071Y-11340143D01*
X19821214Y-11368714D01*
X20078357Y-11454429D02*
X20106929Y-11468714D01*
X20164071Y-11468714D01*
X20192643Y-11454429D01*
X20206929Y-11425857D01*
X20206929Y-11411571D01*
X20192643Y-11383000D01*
X20164071Y-11368714D01*
X20121214Y-11368714D01*
X20092643Y-11354429D01*
X20078357Y-11325857D01*
X20078357Y-11311571D01*
X20092643Y-11283000D01*
X20121214Y-11268714D01*
X20164071Y-11268714D01*
X20192643Y-11283000D01*
X20306928Y-11583000D02*
X20321214Y-11568714D01*
X20349786Y-11525857D01*
X20364071Y-11497286D01*
X20378357Y-11454429D01*
X20392643Y-11383000D01*
X20392643Y-11325857D01*
X20378357Y-11254429D01*
X20364071Y-11211571D01*
X20349786Y-11183000D01*
X20321214Y-11140143D01*
X20306928Y-11125857D01*
X13794860Y-11688360D02*
X13794860Y-11769640D01*
X13754220Y-11729000D02*
X13835500Y-11729000D01*
X14164071Y-11564714D02*
X14192643Y-11564714D01*
X14221214Y-11579000D01*
X14235500Y-11593286D01*
X14249786Y-11621857D01*
X14264071Y-11679000D01*
X14264071Y-11750429D01*
X14249786Y-11807571D01*
X14235500Y-11836143D01*
X14221214Y-11850429D01*
X14192643Y-11864714D01*
X14164071Y-11864714D01*
X14135500Y-11850429D01*
X14121214Y-11836143D01*
X14106928Y-11807571D01*
X14092643Y-11750429D01*
X14092643Y-11679000D01*
X14106928Y-11621857D01*
X14121214Y-11593286D01*
X14135500Y-11579000D01*
X14164071Y-11564714D01*
X14392643Y-11836143D02*
X14406928Y-11850429D01*
X14392643Y-11864714D01*
X14378357Y-11850429D01*
X14392643Y-11836143D01*
X14392643Y-11864714D01*
X14578357Y-11693286D02*
X14549786Y-11679000D01*
X14535500Y-11664714D01*
X14521214Y-11636143D01*
X14521214Y-11621857D01*
X14535500Y-11593286D01*
X14549786Y-11579000D01*
X14578357Y-11564714D01*
X14635500Y-11564714D01*
X14664071Y-11579000D01*
X14678357Y-11593286D01*
X14692643Y-11621857D01*
X14692643Y-11636143D01*
X14678357Y-11664714D01*
X14664071Y-11679000D01*
X14635500Y-11693286D01*
X14578357Y-11693286D01*
X14549786Y-11707571D01*
X14535500Y-11721857D01*
X14521214Y-11750429D01*
X14521214Y-11807571D01*
X14535500Y-11836143D01*
X14549786Y-11850429D01*
X14578357Y-11864714D01*
X14635500Y-11864714D01*
X14664071Y-11850429D01*
X14678357Y-11836143D01*
X14692643Y-11807571D01*
X14692643Y-11750429D01*
X14678357Y-11721857D01*
X14664071Y-11707571D01*
X14635500Y-11693286D01*
X14978357Y-11864714D02*
X14806928Y-11864714D01*
X14892643Y-11864714D02*
X14892643Y-11564714D01*
X14864071Y-11607571D01*
X14835500Y-11636143D01*
X14806928Y-11650429D01*
X15106928Y-11864714D02*
X15106928Y-11664714D01*
X15106928Y-11693286D02*
X15121214Y-11679000D01*
X15149786Y-11664714D01*
X15192643Y-11664714D01*
X15221214Y-11679000D01*
X15235500Y-11707571D01*
X15235500Y-11864714D01*
X15235500Y-11707571D02*
X15249786Y-11679000D01*
X15278357Y-11664714D01*
X15321214Y-11664714D01*
X15349786Y-11679000D01*
X15364071Y-11707571D01*
X15364071Y-11864714D01*
X15506928Y-11864714D02*
X15506928Y-11664714D01*
X15506928Y-11693286D02*
X15521214Y-11679000D01*
X15549786Y-11664714D01*
X15592643Y-11664714D01*
X15621214Y-11679000D01*
X15635500Y-11707571D01*
X15635500Y-11864714D01*
X15635500Y-11707571D02*
X15649786Y-11679000D01*
X15678357Y-11664714D01*
X15721214Y-11664714D01*
X15749786Y-11679000D01*
X15764071Y-11707571D01*
X15764071Y-11864714D01*
X16349786Y-11550429D02*
X16092643Y-11936143D01*
X16735500Y-11564714D02*
X16764071Y-11564714D01*
X16792643Y-11579000D01*
X16806928Y-11593286D01*
X16821214Y-11621857D01*
X16835500Y-11679000D01*
X16835500Y-11750429D01*
X16821214Y-11807571D01*
X16806928Y-11836143D01*
X16792643Y-11850429D01*
X16764071Y-11864714D01*
X16735500Y-11864714D01*
X16706928Y-11850429D01*
X16692643Y-11836143D01*
X16678357Y-11807571D01*
X16664071Y-11750429D01*
X16664071Y-11679000D01*
X16678357Y-11621857D01*
X16692643Y-11593286D01*
X16706928Y-11579000D01*
X16735500Y-11564714D01*
X16964071Y-11836143D02*
X16978357Y-11850429D01*
X16964071Y-11864714D01*
X16949786Y-11850429D01*
X16964071Y-11836143D01*
X16964071Y-11864714D01*
X17164071Y-11564714D02*
X17192643Y-11564714D01*
X17221214Y-11579000D01*
X17235500Y-11593286D01*
X17249786Y-11621857D01*
X17264071Y-11679000D01*
X17264071Y-11750429D01*
X17249786Y-11807571D01*
X17235500Y-11836143D01*
X17221214Y-11850429D01*
X17192643Y-11864714D01*
X17164071Y-11864714D01*
X17135500Y-11850429D01*
X17121214Y-11836143D01*
X17106928Y-11807571D01*
X17092643Y-11750429D01*
X17092643Y-11679000D01*
X17106928Y-11621857D01*
X17121214Y-11593286D01*
X17135500Y-11579000D01*
X17164071Y-11564714D01*
X17364071Y-11564714D02*
X17549786Y-11564714D01*
X17449786Y-11679000D01*
X17492643Y-11679000D01*
X17521214Y-11693286D01*
X17535500Y-11707571D01*
X17549786Y-11736143D01*
X17549786Y-11807571D01*
X17535500Y-11836143D01*
X17521214Y-11850429D01*
X17492643Y-11864714D01*
X17406928Y-11864714D01*
X17378357Y-11850429D01*
X17364071Y-11836143D01*
X17664071Y-11593286D02*
X17678357Y-11579000D01*
X17706928Y-11564714D01*
X17778357Y-11564714D01*
X17806928Y-11579000D01*
X17821214Y-11593286D01*
X17835500Y-11621857D01*
X17835500Y-11650429D01*
X17821214Y-11693286D01*
X17649786Y-11864714D01*
X17835500Y-11864714D01*
X17949786Y-11564714D02*
X17949786Y-11621857D01*
X18064071Y-11564714D02*
X18064071Y-11621857D01*
X18506928Y-11979000D02*
X18492643Y-11964714D01*
X18464071Y-11921857D01*
X18449786Y-11893286D01*
X18435500Y-11850429D01*
X18421214Y-11779000D01*
X18421214Y-11721857D01*
X18435500Y-11650429D01*
X18449786Y-11607571D01*
X18464071Y-11579000D01*
X18492643Y-11536143D01*
X18506928Y-11521857D01*
X18749786Y-11564714D02*
X18692643Y-11564714D01*
X18664071Y-11579000D01*
X18649786Y-11593286D01*
X18621214Y-11636143D01*
X18606928Y-11693286D01*
X18606928Y-11807571D01*
X18621214Y-11836143D01*
X18635500Y-11850429D01*
X18664071Y-11864714D01*
X18721214Y-11864714D01*
X18749786Y-11850429D01*
X18764071Y-11836143D01*
X18778357Y-11807571D01*
X18778357Y-11736143D01*
X18764071Y-11707571D01*
X18749786Y-11693286D01*
X18721214Y-11679000D01*
X18664071Y-11679000D01*
X18635500Y-11693286D01*
X18621214Y-11707571D01*
X18606928Y-11736143D01*
X19135500Y-11864714D02*
X19135500Y-11564714D01*
X19264071Y-11864714D02*
X19264071Y-11707571D01*
X19249786Y-11679000D01*
X19221214Y-11664714D01*
X19178357Y-11664714D01*
X19149786Y-11679000D01*
X19135500Y-11693286D01*
X19449786Y-11864714D02*
X19421214Y-11850429D01*
X19406928Y-11836143D01*
X19392643Y-11807571D01*
X19392643Y-11721857D01*
X19406928Y-11693286D01*
X19421214Y-11679000D01*
X19449786Y-11664714D01*
X19492643Y-11664714D01*
X19521214Y-11679000D01*
X19535500Y-11693286D01*
X19549786Y-11721857D01*
X19549786Y-11807571D01*
X19535500Y-11836143D01*
X19521214Y-11850429D01*
X19492643Y-11864714D01*
X19449786Y-11864714D01*
X19721214Y-11864714D02*
X19692643Y-11850429D01*
X19678357Y-11821857D01*
X19678357Y-11564714D01*
X19949786Y-11850429D02*
X19921214Y-11864714D01*
X19864071Y-11864714D01*
X19835500Y-11850429D01*
X19821214Y-11821857D01*
X19821214Y-11707571D01*
X19835500Y-11679000D01*
X19864071Y-11664714D01*
X19921214Y-11664714D01*
X19949786Y-11679000D01*
X19964071Y-11707571D01*
X19964071Y-11736143D01*
X19821214Y-11764714D01*
X20078357Y-11850429D02*
X20106929Y-11864714D01*
X20164071Y-11864714D01*
X20192643Y-11850429D01*
X20206929Y-11821857D01*
X20206929Y-11807571D01*
X20192643Y-11779000D01*
X20164071Y-11764714D01*
X20121214Y-11764714D01*
X20092643Y-11750429D01*
X20078357Y-11721857D01*
X20078357Y-11707571D01*
X20092643Y-11679000D01*
X20121214Y-11664714D01*
X20164071Y-11664714D01*
X20192643Y-11679000D01*
X20306928Y-11979000D02*
X20321214Y-11964714D01*
X20349786Y-11921857D01*
X20364071Y-11893286D01*
X20378357Y-11850429D01*
X20392643Y-11779000D01*
X20392643Y-11721857D01*
X20378357Y-11650429D01*
X20364071Y-11607571D01*
X20349786Y-11579000D01*
X20321214Y-11536143D01*
X20306928Y-11521857D01*
X13820844Y-12160383D02*
X13820844Y-12089618D01*
X13750079Y-12089618D01*
X13750079Y-12160383D01*
X13820844Y-12160383D01*
X14264071Y-12260714D02*
X14092643Y-12260714D01*
X14178357Y-12260714D02*
X14178357Y-11960714D01*
X14149786Y-12003571D01*
X14121214Y-12032143D01*
X14092643Y-12046429D01*
X14392643Y-12232143D02*
X14406928Y-12246429D01*
X14392643Y-12260714D01*
X14378357Y-12246429D01*
X14392643Y-12232143D01*
X14392643Y-12260714D01*
X14592643Y-11960714D02*
X14621214Y-11960714D01*
X14649786Y-11975000D01*
X14664071Y-11989286D01*
X14678357Y-12017857D01*
X14692643Y-12075000D01*
X14692643Y-12146429D01*
X14678357Y-12203571D01*
X14664071Y-12232143D01*
X14649786Y-12246429D01*
X14621214Y-12260714D01*
X14592643Y-12260714D01*
X14564071Y-12246429D01*
X14549786Y-12232143D01*
X14535500Y-12203571D01*
X14521214Y-12146429D01*
X14521214Y-12075000D01*
X14535500Y-12017857D01*
X14549786Y-11989286D01*
X14564071Y-11975000D01*
X14592643Y-11960714D01*
X14878357Y-11960714D02*
X14906928Y-11960714D01*
X14935500Y-11975000D01*
X14949786Y-11989286D01*
X14964071Y-12017857D01*
X14978357Y-12075000D01*
X14978357Y-12146429D01*
X14964071Y-12203571D01*
X14949786Y-12232143D01*
X14935500Y-12246429D01*
X14906928Y-12260714D01*
X14878357Y-12260714D01*
X14849786Y-12246429D01*
X14835500Y-12232143D01*
X14821214Y-12203571D01*
X14806928Y-12146429D01*
X14806928Y-12075000D01*
X14821214Y-12017857D01*
X14835500Y-11989286D01*
X14849786Y-11975000D01*
X14878357Y-11960714D01*
X15106928Y-12260714D02*
X15106928Y-12060714D01*
X15106928Y-12089286D02*
X15121214Y-12075000D01*
X15149786Y-12060714D01*
X15192643Y-12060714D01*
X15221214Y-12075000D01*
X15235500Y-12103571D01*
X15235500Y-12260714D01*
X15235500Y-12103571D02*
X15249786Y-12075000D01*
X15278357Y-12060714D01*
X15321214Y-12060714D01*
X15349786Y-12075000D01*
X15364071Y-12103571D01*
X15364071Y-12260714D01*
X15506928Y-12260714D02*
X15506928Y-12060714D01*
X15506928Y-12089286D02*
X15521214Y-12075000D01*
X15549786Y-12060714D01*
X15592643Y-12060714D01*
X15621214Y-12075000D01*
X15635500Y-12103571D01*
X15635500Y-12260714D01*
X15635500Y-12103571D02*
X15649786Y-12075000D01*
X15678357Y-12060714D01*
X15721214Y-12060714D01*
X15749786Y-12075000D01*
X15764071Y-12103571D01*
X15764071Y-12260714D01*
X16349786Y-11946429D02*
X16092643Y-12332143D01*
X16735500Y-11960714D02*
X16764071Y-11960714D01*
X16792643Y-11975000D01*
X16806928Y-11989286D01*
X16821214Y-12017857D01*
X16835500Y-12075000D01*
X16835500Y-12146429D01*
X16821214Y-12203571D01*
X16806928Y-12232143D01*
X16792643Y-12246429D01*
X16764071Y-12260714D01*
X16735500Y-12260714D01*
X16706928Y-12246429D01*
X16692643Y-12232143D01*
X16678357Y-12203571D01*
X16664071Y-12146429D01*
X16664071Y-12075000D01*
X16678357Y-12017857D01*
X16692643Y-11989286D01*
X16706928Y-11975000D01*
X16735500Y-11960714D01*
X16964071Y-12232143D02*
X16978357Y-12246429D01*
X16964071Y-12260714D01*
X16949786Y-12246429D01*
X16964071Y-12232143D01*
X16964071Y-12260714D01*
X17164071Y-11960714D02*
X17192643Y-11960714D01*
X17221214Y-11975000D01*
X17235500Y-11989286D01*
X17249786Y-12017857D01*
X17264071Y-12075000D01*
X17264071Y-12146429D01*
X17249786Y-12203571D01*
X17235500Y-12232143D01*
X17221214Y-12246429D01*
X17192643Y-12260714D01*
X17164071Y-12260714D01*
X17135500Y-12246429D01*
X17121214Y-12232143D01*
X17106928Y-12203571D01*
X17092643Y-12146429D01*
X17092643Y-12075000D01*
X17106928Y-12017857D01*
X17121214Y-11989286D01*
X17135500Y-11975000D01*
X17164071Y-11960714D01*
X17364071Y-11960714D02*
X17549786Y-11960714D01*
X17449786Y-12075000D01*
X17492643Y-12075000D01*
X17521214Y-12089286D01*
X17535500Y-12103571D01*
X17549786Y-12132143D01*
X17549786Y-12203571D01*
X17535500Y-12232143D01*
X17521214Y-12246429D01*
X17492643Y-12260714D01*
X17406928Y-12260714D01*
X17378357Y-12246429D01*
X17364071Y-12232143D01*
X17692643Y-12260714D02*
X17749786Y-12260714D01*
X17778357Y-12246429D01*
X17792643Y-12232143D01*
X17821214Y-12189286D01*
X17835500Y-12132143D01*
X17835500Y-12017857D01*
X17821214Y-11989286D01*
X17806928Y-11975000D01*
X17778357Y-11960714D01*
X17721214Y-11960714D01*
X17692643Y-11975000D01*
X17678357Y-11989286D01*
X17664071Y-12017857D01*
X17664071Y-12089286D01*
X17678357Y-12117857D01*
X17692643Y-12132143D01*
X17721214Y-12146429D01*
X17778357Y-12146429D01*
X17806928Y-12132143D01*
X17821214Y-12117857D01*
X17835500Y-12089286D01*
X17949786Y-11960714D02*
X17949786Y-12017857D01*
X18064071Y-11960714D02*
X18064071Y-12017857D01*
X18506928Y-12375000D02*
X18492643Y-12360714D01*
X18464071Y-12317857D01*
X18449786Y-12289286D01*
X18435500Y-12246429D01*
X18421214Y-12175000D01*
X18421214Y-12117857D01*
X18435500Y-12046429D01*
X18449786Y-12003571D01*
X18464071Y-11975000D01*
X18492643Y-11932143D01*
X18506928Y-11917857D01*
X18606928Y-11989286D02*
X18621214Y-11975000D01*
X18649786Y-11960714D01*
X18721214Y-11960714D01*
X18749786Y-11975000D01*
X18764071Y-11989286D01*
X18778357Y-12017857D01*
X18778357Y-12046429D01*
X18764071Y-12089286D01*
X18592643Y-12260714D01*
X18778357Y-12260714D01*
X19135500Y-12260714D02*
X19135500Y-11960714D01*
X19264071Y-12260714D02*
X19264071Y-12103571D01*
X19249786Y-12075000D01*
X19221214Y-12060714D01*
X19178357Y-12060714D01*
X19149786Y-12075000D01*
X19135500Y-12089286D01*
X19449786Y-12260714D02*
X19421214Y-12246429D01*
X19406928Y-12232143D01*
X19392643Y-12203571D01*
X19392643Y-12117857D01*
X19406928Y-12089286D01*
X19421214Y-12075000D01*
X19449786Y-12060714D01*
X19492643Y-12060714D01*
X19521214Y-12075000D01*
X19535500Y-12089286D01*
X19549786Y-12117857D01*
X19549786Y-12203571D01*
X19535500Y-12232143D01*
X19521214Y-12246429D01*
X19492643Y-12260714D01*
X19449786Y-12260714D01*
X19721214Y-12260714D02*
X19692643Y-12246429D01*
X19678357Y-12217857D01*
X19678357Y-11960714D01*
X19949786Y-12246429D02*
X19921214Y-12260714D01*
X19864071Y-12260714D01*
X19835500Y-12246429D01*
X19821214Y-12217857D01*
X19821214Y-12103571D01*
X19835500Y-12075000D01*
X19864071Y-12060714D01*
X19921214Y-12060714D01*
X19949786Y-12075000D01*
X19964071Y-12103571D01*
X19964071Y-12132143D01*
X19821214Y-12160714D01*
X20078357Y-12246429D02*
X20106929Y-12260714D01*
X20164071Y-12260714D01*
X20192643Y-12246429D01*
X20206929Y-12217857D01*
X20206929Y-12203571D01*
X20192643Y-12175000D01*
X20164071Y-12160714D01*
X20121214Y-12160714D01*
X20092643Y-12146429D01*
X20078357Y-12117857D01*
X20078357Y-12103571D01*
X20092643Y-12075000D01*
X20121214Y-12060714D01*
X20164071Y-12060714D01*
X20192643Y-12075000D01*
X20306928Y-12375000D02*
X20321214Y-12360714D01*
X20349786Y-12317857D01*
X20364071Y-12289286D01*
X20378357Y-12246429D01*
X20392643Y-12175000D01*
X20392643Y-12117857D01*
X20378357Y-12046429D01*
X20364071Y-12003571D01*
X20349786Y-11975000D01*
X20321214Y-11932143D01*
X20306928Y-11917857D01*
X13759300Y-12597200D02*
X13835500Y-12521000D01*
X13759300Y-12444800D01*
X13683100Y-12521000D01*
X13759300Y-12597200D01*
X14264071Y-12656714D02*
X14092643Y-12656714D01*
X14178357Y-12656714D02*
X14178357Y-12356714D01*
X14149786Y-12399571D01*
X14121214Y-12428143D01*
X14092643Y-12442429D01*
X14392643Y-12628143D02*
X14406928Y-12642429D01*
X14392643Y-12656714D01*
X14378357Y-12642429D01*
X14392643Y-12628143D01*
X14392643Y-12656714D01*
X14678357Y-12356714D02*
X14535500Y-12356714D01*
X14521214Y-12499571D01*
X14535500Y-12485286D01*
X14564071Y-12471000D01*
X14635500Y-12471000D01*
X14664071Y-12485286D01*
X14678357Y-12499571D01*
X14692643Y-12528143D01*
X14692643Y-12599571D01*
X14678357Y-12628143D01*
X14664071Y-12642429D01*
X14635500Y-12656714D01*
X14564071Y-12656714D01*
X14535500Y-12642429D01*
X14521214Y-12628143D01*
X14806928Y-12385286D02*
X14821214Y-12371000D01*
X14849786Y-12356714D01*
X14921214Y-12356714D01*
X14949786Y-12371000D01*
X14964071Y-12385286D01*
X14978357Y-12413857D01*
X14978357Y-12442429D01*
X14964071Y-12485286D01*
X14792643Y-12656714D01*
X14978357Y-12656714D01*
X15106928Y-12656714D02*
X15106928Y-12456714D01*
X15106928Y-12485286D02*
X15121214Y-12471000D01*
X15149786Y-12456714D01*
X15192643Y-12456714D01*
X15221214Y-12471000D01*
X15235500Y-12499571D01*
X15235500Y-12656714D01*
X15235500Y-12499571D02*
X15249786Y-12471000D01*
X15278357Y-12456714D01*
X15321214Y-12456714D01*
X15349786Y-12471000D01*
X15364071Y-12499571D01*
X15364071Y-12656714D01*
X15506928Y-12656714D02*
X15506928Y-12456714D01*
X15506928Y-12485286D02*
X15521214Y-12471000D01*
X15549786Y-12456714D01*
X15592643Y-12456714D01*
X15621214Y-12471000D01*
X15635500Y-12499571D01*
X15635500Y-12656714D01*
X15635500Y-12499571D02*
X15649786Y-12471000D01*
X15678357Y-12456714D01*
X15721214Y-12456714D01*
X15749786Y-12471000D01*
X15764071Y-12499571D01*
X15764071Y-12656714D01*
X16349786Y-12342429D02*
X16092643Y-12728143D01*
X16735500Y-12356714D02*
X16764071Y-12356714D01*
X16792643Y-12371000D01*
X16806928Y-12385286D01*
X16821214Y-12413857D01*
X16835500Y-12471000D01*
X16835500Y-12542429D01*
X16821214Y-12599571D01*
X16806928Y-12628143D01*
X16792643Y-12642429D01*
X16764071Y-12656714D01*
X16735500Y-12656714D01*
X16706928Y-12642429D01*
X16692643Y-12628143D01*
X16678357Y-12599571D01*
X16664071Y-12542429D01*
X16664071Y-12471000D01*
X16678357Y-12413857D01*
X16692643Y-12385286D01*
X16706928Y-12371000D01*
X16735500Y-12356714D01*
X16964071Y-12628143D02*
X16978357Y-12642429D01*
X16964071Y-12656714D01*
X16949786Y-12642429D01*
X16964071Y-12628143D01*
X16964071Y-12656714D01*
X17164071Y-12356714D02*
X17192643Y-12356714D01*
X17221214Y-12371000D01*
X17235500Y-12385286D01*
X17249786Y-12413857D01*
X17264071Y-12471000D01*
X17264071Y-12542429D01*
X17249786Y-12599571D01*
X17235500Y-12628143D01*
X17221214Y-12642429D01*
X17192643Y-12656714D01*
X17164071Y-12656714D01*
X17135500Y-12642429D01*
X17121214Y-12628143D01*
X17106928Y-12599571D01*
X17092643Y-12542429D01*
X17092643Y-12471000D01*
X17106928Y-12413857D01*
X17121214Y-12385286D01*
X17135500Y-12371000D01*
X17164071Y-12356714D01*
X17521214Y-12356714D02*
X17464071Y-12356714D01*
X17435500Y-12371000D01*
X17421214Y-12385286D01*
X17392643Y-12428143D01*
X17378357Y-12485286D01*
X17378357Y-12599571D01*
X17392643Y-12628143D01*
X17406928Y-12642429D01*
X17435500Y-12656714D01*
X17492643Y-12656714D01*
X17521214Y-12642429D01*
X17535500Y-12628143D01*
X17549786Y-12599571D01*
X17549786Y-12528143D01*
X17535500Y-12499571D01*
X17521214Y-12485286D01*
X17492643Y-12471000D01*
X17435500Y-12471000D01*
X17406928Y-12485286D01*
X17392643Y-12499571D01*
X17378357Y-12528143D01*
X17735500Y-12356714D02*
X17764071Y-12356714D01*
X17792643Y-12371000D01*
X17806928Y-12385286D01*
X17821214Y-12413857D01*
X17835500Y-12471000D01*
X17835500Y-12542429D01*
X17821214Y-12599571D01*
X17806928Y-12628143D01*
X17792643Y-12642429D01*
X17764071Y-12656714D01*
X17735500Y-12656714D01*
X17706928Y-12642429D01*
X17692643Y-12628143D01*
X17678357Y-12599571D01*
X17664071Y-12542429D01*
X17664071Y-12471000D01*
X17678357Y-12413857D01*
X17692643Y-12385286D01*
X17706928Y-12371000D01*
X17735500Y-12356714D01*
X17949786Y-12356714D02*
X17949786Y-12413857D01*
X18064071Y-12356714D02*
X18064071Y-12413857D01*
X18506928Y-12771000D02*
X18492643Y-12756714D01*
X18464071Y-12713857D01*
X18449786Y-12685286D01*
X18435500Y-12642429D01*
X18421214Y-12571000D01*
X18421214Y-12513857D01*
X18435500Y-12442429D01*
X18449786Y-12399571D01*
X18464071Y-12371000D01*
X18492643Y-12328143D01*
X18506928Y-12313857D01*
X18592643Y-12356714D02*
X18778357Y-12356714D01*
X18678357Y-12471000D01*
X18721214Y-12471000D01*
X18749786Y-12485286D01*
X18764071Y-12499571D01*
X18778357Y-12528143D01*
X18778357Y-12599571D01*
X18764071Y-12628143D01*
X18749786Y-12642429D01*
X18721214Y-12656714D01*
X18635500Y-12656714D01*
X18606928Y-12642429D01*
X18592643Y-12628143D01*
X19135500Y-12656714D02*
X19135500Y-12356714D01*
X19264071Y-12656714D02*
X19264071Y-12499571D01*
X19249786Y-12471000D01*
X19221214Y-12456714D01*
X19178357Y-12456714D01*
X19149786Y-12471000D01*
X19135500Y-12485286D01*
X19449786Y-12656714D02*
X19421214Y-12642429D01*
X19406928Y-12628143D01*
X19392643Y-12599571D01*
X19392643Y-12513857D01*
X19406928Y-12485286D01*
X19421214Y-12471000D01*
X19449786Y-12456714D01*
X19492643Y-12456714D01*
X19521214Y-12471000D01*
X19535500Y-12485286D01*
X19549786Y-12513857D01*
X19549786Y-12599571D01*
X19535500Y-12628143D01*
X19521214Y-12642429D01*
X19492643Y-12656714D01*
X19449786Y-12656714D01*
X19721214Y-12656714D02*
X19692643Y-12642429D01*
X19678357Y-12613857D01*
X19678357Y-12356714D01*
X19949786Y-12642429D02*
X19921214Y-12656714D01*
X19864071Y-12656714D01*
X19835500Y-12642429D01*
X19821214Y-12613857D01*
X19821214Y-12499571D01*
X19835500Y-12471000D01*
X19864071Y-12456714D01*
X19921214Y-12456714D01*
X19949786Y-12471000D01*
X19964071Y-12499571D01*
X19964071Y-12528143D01*
X19821214Y-12556714D01*
X20078357Y-12642429D02*
X20106929Y-12656714D01*
X20164071Y-12656714D01*
X20192643Y-12642429D01*
X20206929Y-12613857D01*
X20206929Y-12599571D01*
X20192643Y-12571000D01*
X20164071Y-12556714D01*
X20121214Y-12556714D01*
X20092643Y-12542429D01*
X20078357Y-12513857D01*
X20078357Y-12499571D01*
X20092643Y-12471000D01*
X20121214Y-12456714D01*
X20164071Y-12456714D01*
X20192643Y-12471000D01*
X20306928Y-12771000D02*
X20321214Y-12756714D01*
X20349786Y-12713857D01*
X20364071Y-12685286D01*
X20378357Y-12642429D01*
X20392643Y-12571000D01*
X20392643Y-12513857D01*
X20378357Y-12442429D01*
X20364071Y-12399571D01*
X20349786Y-12371000D01*
X20321214Y-12328143D01*
X20306928Y-12313857D01*
M02*
