G04 #@! TF.FileFunction,Drawing*
%FSLAX46Y46*%
G04 Gerber Fmt 4.6, Leading zero omitted, Abs format (unit mm)*
G04 Created by KiCad (PCBNEW 4.0.0-rc1-stable) date 30/11/2015 17:11:05*
%MOMM*%
G01*
G04 APERTURE LIST*
%ADD10C,0.100000*%
%ADD11C,0.300000*%
G04 APERTURE END LIST*
D10*
D11*
X169668571Y-119085713D02*
X169668571Y-119942856D01*
X169668571Y-119514284D02*
X168168571Y-119514284D01*
X168382857Y-119657141D01*
X168525714Y-119799999D01*
X168597143Y-119942856D01*
X168168571Y-118585713D02*
X168168571Y-117585713D01*
X169668571Y-118228570D01*
X169597143Y-116942857D02*
X169668571Y-116942857D01*
X169811429Y-117014285D01*
X169882857Y-117085714D01*
X168168571Y-116442856D02*
X168168571Y-115442856D01*
X169668571Y-116085713D01*
X168811429Y-114657142D02*
X168740000Y-114800000D01*
X168668571Y-114871428D01*
X168525714Y-114942857D01*
X168454286Y-114942857D01*
X168311429Y-114871428D01*
X168240000Y-114800000D01*
X168168571Y-114657142D01*
X168168571Y-114371428D01*
X168240000Y-114228571D01*
X168311429Y-114157142D01*
X168454286Y-114085714D01*
X168525714Y-114085714D01*
X168668571Y-114157142D01*
X168740000Y-114228571D01*
X168811429Y-114371428D01*
X168811429Y-114657142D01*
X168882857Y-114800000D01*
X168954286Y-114871428D01*
X169097143Y-114942857D01*
X169382857Y-114942857D01*
X169525714Y-114871428D01*
X169597143Y-114800000D01*
X169668571Y-114657142D01*
X169668571Y-114371428D01*
X169597143Y-114228571D01*
X169525714Y-114157142D01*
X169382857Y-114085714D01*
X169097143Y-114085714D01*
X168954286Y-114157142D01*
X168882857Y-114228571D01*
X168811429Y-114371428D01*
X168168571Y-113157143D02*
X168168571Y-113014286D01*
X168240000Y-112871429D01*
X168311429Y-112800000D01*
X168454286Y-112728571D01*
X168740000Y-112657143D01*
X169097143Y-112657143D01*
X169382857Y-112728571D01*
X169525714Y-112800000D01*
X169597143Y-112871429D01*
X169668571Y-113014286D01*
X169668571Y-113157143D01*
X169597143Y-113300000D01*
X169525714Y-113371429D01*
X169382857Y-113442857D01*
X169097143Y-113514286D01*
X168740000Y-113514286D01*
X168454286Y-113442857D01*
X168311429Y-113371429D01*
X168240000Y-113300000D01*
X168168571Y-113157143D01*
X169668571Y-112014286D02*
X168668571Y-112014286D01*
X168811429Y-112014286D02*
X168740000Y-111942858D01*
X168668571Y-111800000D01*
X168668571Y-111585715D01*
X168740000Y-111442858D01*
X168882857Y-111371429D01*
X169668571Y-111371429D01*
X168882857Y-111371429D02*
X168740000Y-111300000D01*
X168668571Y-111157143D01*
X168668571Y-110942858D01*
X168740000Y-110800000D01*
X168882857Y-110728572D01*
X169668571Y-110728572D01*
X169668571Y-110014286D02*
X168668571Y-110014286D01*
X168811429Y-110014286D02*
X168740000Y-109942858D01*
X168668571Y-109800000D01*
X168668571Y-109585715D01*
X168740000Y-109442858D01*
X168882857Y-109371429D01*
X169668571Y-109371429D01*
X168882857Y-109371429D02*
X168740000Y-109300000D01*
X168668571Y-109157143D01*
X168668571Y-108942858D01*
X168740000Y-108800000D01*
X168882857Y-108728572D01*
X169668571Y-108728572D01*
X167640000Y-123190000D02*
X167640000Y-105410000D01*
X163195000Y-123190000D02*
X170340000Y-123190000D01*
X163195000Y-105410000D02*
X170340000Y-105410000D01*
X167640000Y-105410000D02*
X168226421Y-106536504D01*
X167640000Y-105410000D02*
X167053579Y-106536504D01*
X167640000Y-123190000D02*
X168226421Y-122063496D01*
X167640000Y-123190000D02*
X167053579Y-122063496D01*
X143899644Y-98936429D02*
X143971073Y-98865000D01*
X144113930Y-98793571D01*
X144471073Y-98793571D01*
X144613930Y-98865000D01*
X144685359Y-98936429D01*
X144756787Y-99079286D01*
X144756787Y-99222143D01*
X144685359Y-99436429D01*
X143828216Y-100293571D01*
X144756787Y-100293571D01*
X145256787Y-98793571D02*
X146256787Y-98793571D01*
X145613930Y-100293571D01*
X146899643Y-100222143D02*
X146899643Y-100293571D01*
X146828215Y-100436429D01*
X146756786Y-100507857D01*
X147399644Y-98793571D02*
X148328215Y-98793571D01*
X147828215Y-99365000D01*
X148042501Y-99365000D01*
X148185358Y-99436429D01*
X148256787Y-99507857D01*
X148328215Y-99650714D01*
X148328215Y-100007857D01*
X148256787Y-100150714D01*
X148185358Y-100222143D01*
X148042501Y-100293571D01*
X147613929Y-100293571D01*
X147471072Y-100222143D01*
X147399644Y-100150714D01*
X149256786Y-98793571D02*
X149399643Y-98793571D01*
X149542500Y-98865000D01*
X149613929Y-98936429D01*
X149685358Y-99079286D01*
X149756786Y-99365000D01*
X149756786Y-99722143D01*
X149685358Y-100007857D01*
X149613929Y-100150714D01*
X149542500Y-100222143D01*
X149399643Y-100293571D01*
X149256786Y-100293571D01*
X149113929Y-100222143D01*
X149042500Y-100150714D01*
X148971072Y-100007857D01*
X148899643Y-99722143D01*
X148899643Y-99365000D01*
X148971072Y-99079286D01*
X149042500Y-98936429D01*
X149113929Y-98865000D01*
X149256786Y-98793571D01*
X151113929Y-98793571D02*
X150399643Y-98793571D01*
X150328214Y-99507857D01*
X150399643Y-99436429D01*
X150542500Y-99365000D01*
X150899643Y-99365000D01*
X151042500Y-99436429D01*
X151113929Y-99507857D01*
X151185357Y-99650714D01*
X151185357Y-100007857D01*
X151113929Y-100150714D01*
X151042500Y-100222143D01*
X150899643Y-100293571D01*
X150542500Y-100293571D01*
X150399643Y-100222143D01*
X150328214Y-100150714D01*
X151828214Y-100293571D02*
X151828214Y-99293571D01*
X151828214Y-99436429D02*
X151899642Y-99365000D01*
X152042500Y-99293571D01*
X152256785Y-99293571D01*
X152399642Y-99365000D01*
X152471071Y-99507857D01*
X152471071Y-100293571D01*
X152471071Y-99507857D02*
X152542500Y-99365000D01*
X152685357Y-99293571D01*
X152899642Y-99293571D01*
X153042500Y-99365000D01*
X153113928Y-99507857D01*
X153113928Y-100293571D01*
X153828214Y-100293571D02*
X153828214Y-99293571D01*
X153828214Y-99436429D02*
X153899642Y-99365000D01*
X154042500Y-99293571D01*
X154256785Y-99293571D01*
X154399642Y-99365000D01*
X154471071Y-99507857D01*
X154471071Y-100293571D01*
X154471071Y-99507857D02*
X154542500Y-99365000D01*
X154685357Y-99293571D01*
X154899642Y-99293571D01*
X155042500Y-99365000D01*
X155113928Y-99507857D01*
X155113928Y-100293571D01*
X135890000Y-100965000D02*
X163195000Y-100965000D01*
X135890000Y-105410000D02*
X135890000Y-98265000D01*
X163195000Y-105410000D02*
X163195000Y-98265000D01*
X163195000Y-100965000D02*
X162068496Y-101551421D01*
X163195000Y-100965000D02*
X162068496Y-100378579D01*
X135890000Y-100965000D02*
X137016504Y-101551421D01*
X135890000Y-100965000D02*
X137016504Y-100378579D01*
M02*
