G04 #@! TF.FileFunction,Copper,L2,Bot,Signal*
%FSLAX46Y46*%
G04 Gerber Fmt 4.6, Leading zero omitted, Abs format (unit mm)*
G04 Created by KiCad (PCBNEW 4.0.0-rc1-stable) date 30/11/2015 17:11:05*
%MOMM*%
G01*
G04 APERTURE LIST*
%ADD10C,0.100000*%
%ADD11C,0.300000*%
%ADD12R,1.300000X1.300000*%
%ADD13C,1.300000*%
%ADD14R,2.000000X2.000000*%
%ADD15C,2.000000*%
%ADD16C,1.699260*%
%ADD17R,1.699260X1.699260*%
%ADD18R,2.540000X2.540000*%
%ADD19C,2.540000*%
%ADD20C,1.651000*%
%ADD21C,0.812800*%
G04 APERTURE END LIST*
D10*
D11*
X160992142Y-107207857D02*
X160492142Y-107207857D01*
X160277856Y-107993571D02*
X160992142Y-107993571D01*
X160992142Y-106493571D01*
X160277856Y-106493571D01*
X159206428Y-106493571D02*
X159206428Y-107565000D01*
X159277856Y-107779286D01*
X159420713Y-107922143D01*
X159634999Y-107993571D01*
X159777856Y-107993571D01*
X157706428Y-107993571D02*
X158563571Y-107993571D01*
X158134999Y-107993571D02*
X158134999Y-106493571D01*
X158277856Y-106707857D01*
X158420714Y-106850714D01*
X158563571Y-106922143D01*
D12*
X147320000Y-115570000D03*
D13*
X152320000Y-115570000D03*
D14*
X149860000Y-109220000D03*
D15*
X147320000Y-109220000D03*
D16*
X157480520Y-120647460D03*
D17*
X147320520Y-120647460D03*
D18*
X140970000Y-109220000D03*
D19*
X140970000Y-114300000D03*
X140970000Y-119380000D03*
D20*
X157480000Y-110490000D03*
X157480000Y-118110000D03*
X161290000Y-110490000D03*
X161290000Y-118110000D03*
X153035000Y-109220000D03*
X155575000Y-109220000D03*
D21*
X140970000Y-109220000D02*
X147320000Y-109220000D01*
X147320000Y-109220000D02*
X147320000Y-115570000D01*
X161290000Y-110490000D02*
X157480000Y-110490000D01*
X149860000Y-109220000D02*
X153035000Y-109220000D01*
X155575000Y-109220000D02*
X156845000Y-110490000D01*
X156845000Y-110490000D02*
X157480000Y-110490000D01*
X152320000Y-115570000D02*
X152320000Y-115490000D01*
X152320000Y-115490000D02*
X149860000Y-113030000D01*
X149860000Y-113030000D02*
X149860000Y-109220000D01*
X161290000Y-118110000D02*
X157480000Y-118110000D01*
X157480520Y-120647460D02*
X157480520Y-118110520D01*
X157480520Y-118110520D02*
X157480000Y-118110000D01*
X140970000Y-119380000D02*
X142240000Y-120650000D01*
X142240000Y-120650000D02*
X147317980Y-120650000D01*
X147317980Y-120650000D02*
X147320520Y-120647460D01*
M02*
