G04 #@! TF.FileFunction,Copper,L2,Bot,Signal*
%FSLAX46Y46*%
G04 Gerber Fmt 4.6, Leading zero omitted, Abs format (unit mm)*
G04 Created by KiCad (PCBNEW 4.0.0-rc1-stable) date 30/11/2015 17:11:16*
%MOMM*%
G01*
G04 APERTURE LIST*
%ADD10C,0.100000*%
%ADD11C,0.150000*%
%ADD12R,1.300000X1.300000*%
%ADD13C,1.300000*%
%ADD14R,2.000000X2.000000*%
%ADD15C,2.000000*%
%ADD16C,1.699260*%
%ADD17R,1.699260X1.699260*%
%ADD18R,2.540000X2.540000*%
%ADD19C,2.540000*%
%ADD20C,1.651000*%
%ADD21C,0.812800*%
G04 APERTURE END LIST*
D10*
D11*
X151130000Y-88265000D02*
X149860000Y-88265000D01*
X151130000Y-105410000D02*
X151130000Y-88265000D01*
X149860000Y-105410000D02*
X151130000Y-105410000D01*
X126365000Y-105410000D02*
X126365000Y-88265000D01*
X149860000Y-105410000D02*
X126365000Y-105410000D01*
X126365000Y-88265000D02*
X149860000Y-88265000D01*
D12*
X137240000Y-97790000D03*
D13*
X142240000Y-97790000D03*
D14*
X140970000Y-91440000D03*
D15*
X138430000Y-91440000D03*
D16*
X147320000Y-102870000D03*
D17*
X137160000Y-102870000D03*
D18*
X130810000Y-101600000D03*
D19*
X130810000Y-96520000D03*
X130810000Y-91440000D03*
D20*
X146050000Y-92710000D03*
X146050000Y-100330000D03*
X149225000Y-92710000D03*
X149225000Y-100330000D03*
X146050000Y-90805000D03*
X143510000Y-90805000D03*
D21*
X138430000Y-91440000D02*
X138430000Y-95885000D01*
X138430000Y-96600000D02*
X137240000Y-97790000D01*
X138430000Y-95885000D02*
X138430000Y-96600000D01*
X130810000Y-91440000D02*
X138430000Y-91440000D01*
X146050000Y-92710000D02*
X149225000Y-92710000D01*
X140970000Y-91440000D02*
X142875000Y-91440000D01*
X146050000Y-90805000D02*
X146050000Y-92710000D01*
X142875000Y-91440000D02*
X143510000Y-90805000D01*
X140970000Y-91440000D02*
X140970000Y-96520000D01*
X140970000Y-96520000D02*
X142240000Y-97790000D01*
X147320000Y-102870000D02*
X147320000Y-100330000D01*
X146050000Y-100330000D02*
X147320000Y-100330000D01*
X147320000Y-100330000D02*
X149225000Y-100330000D01*
X149225000Y-100330000D02*
X148590000Y-100330000D01*
X148590000Y-100330000D02*
X147320000Y-101600000D01*
X147320000Y-101600000D02*
X147320000Y-102870000D01*
X146050000Y-100330000D02*
X147320000Y-101600000D01*
X147320000Y-101600000D02*
X147320000Y-102870000D01*
X130810000Y-101600000D02*
X135255000Y-101600000D01*
X135890000Y-101600000D02*
X137160000Y-102870000D01*
X135255000Y-101600000D02*
X135890000Y-101600000D01*
M02*
