G04 #@! TF.FileFunction,Legend,Top*
%FSLAX46Y46*%
G04 Gerber Fmt 4.6, Leading zero omitted, Abs format (unit mm)*
G04 Created by KiCad (PCBNEW 4.0.0-1rc2.201511201506+6189~38~ubuntu15.10.1-stable) date lun 30 nov 2015 17:23:25 ART*
%MOMM*%
G01*
G04 APERTURE LIST*
%ADD10C,0.100000*%
%ADD11C,0.150000*%
G04 APERTURE END LIST*
D10*
D11*
X153019000Y-102842000D02*
X146019000Y-102842000D01*
X146019000Y-102842000D02*
X146019000Y-99342000D01*
X146019000Y-99342000D02*
X153019000Y-99342000D01*
X153019000Y-99342000D02*
X153019000Y-102842000D01*
X150948000Y-93428000D02*
X150948000Y-93628000D01*
X150948000Y-96022000D02*
X150948000Y-95842000D01*
X147720256Y-95711643D02*
G75*
G03X150948000Y-96028000I1727744J1003643D01*
G01*
X148395994Y-95841068D02*
G75*
G03X150499000Y-95842000I1052006J1133068D01*
G01*
X150935220Y-93401274D02*
G75*
G03X147698000Y-93748000I-1497220J-1306726D01*
G01*
X150461889Y-93628747D02*
G75*
G03X148414000Y-93648000I-1013889J-1079253D01*
G01*
X153035520Y-106169460D02*
X154432520Y-106169460D01*
X148590520Y-106169460D02*
X147066520Y-106169460D01*
X148971520Y-105407460D02*
X148971520Y-106931460D01*
X148717520Y-105407460D02*
X148717520Y-106931460D01*
X148463520Y-106169460D02*
X148463520Y-106931460D01*
X148463520Y-106931460D02*
X153035520Y-106931460D01*
X153035520Y-106931460D02*
X153035520Y-105407460D01*
X153035520Y-105407460D02*
X148463520Y-105407460D01*
X148463520Y-105407460D02*
X148463520Y-106169460D01*
X135509000Y-92202000D02*
X143129000Y-92202000D01*
X135509000Y-107442000D02*
X143129000Y-107442000D01*
X136779000Y-92202000D02*
X136779000Y-107442000D01*
X143129000Y-92202000D02*
X143129000Y-107442000D01*
X135509000Y-92202000D02*
X135509000Y-107442000D01*
X155829000Y-94742000D02*
X155829000Y-95250000D01*
X155829000Y-102362000D02*
X155829000Y-101854000D01*
X155829000Y-101854000D02*
X156845000Y-101854000D01*
X156845000Y-101854000D02*
X156845000Y-95250000D01*
X156845000Y-95250000D02*
X154813000Y-95250000D01*
X154813000Y-95250000D02*
X154813000Y-101854000D01*
X154813000Y-101854000D02*
X155829000Y-101854000D01*
X156337000Y-95250000D02*
X156845000Y-95758000D01*
X159385000Y-94742000D02*
X159385000Y-95250000D01*
X159385000Y-102362000D02*
X159385000Y-101854000D01*
X159385000Y-101854000D02*
X160401000Y-101854000D01*
X160401000Y-101854000D02*
X160401000Y-95250000D01*
X160401000Y-95250000D02*
X158369000Y-95250000D01*
X158369000Y-95250000D02*
X158369000Y-101854000D01*
X158369000Y-101854000D02*
X159385000Y-101854000D01*
X159893000Y-95250000D02*
X160401000Y-95758000D01*
X149185334Y-98655143D02*
X149137715Y-98702762D01*
X148994858Y-98750381D01*
X148899620Y-98750381D01*
X148756762Y-98702762D01*
X148661524Y-98607524D01*
X148613905Y-98512286D01*
X148566286Y-98321810D01*
X148566286Y-98178952D01*
X148613905Y-97988476D01*
X148661524Y-97893238D01*
X148756762Y-97798000D01*
X148899620Y-97750381D01*
X148994858Y-97750381D01*
X149137715Y-97798000D01*
X149185334Y-97845619D01*
X150137715Y-98750381D02*
X149566286Y-98750381D01*
X149852000Y-98750381D02*
X149852000Y-97750381D01*
X149756762Y-97893238D01*
X149661524Y-97988476D01*
X149566286Y-98036095D01*
X148486905Y-92019381D02*
X148486905Y-91019381D01*
X148725000Y-91019381D01*
X148867858Y-91067000D01*
X148963096Y-91162238D01*
X149010715Y-91257476D01*
X149058334Y-91447952D01*
X149058334Y-91590810D01*
X149010715Y-91781286D01*
X148963096Y-91876524D01*
X148867858Y-91971762D01*
X148725000Y-92019381D01*
X148486905Y-92019381D01*
X150010715Y-92019381D02*
X149439286Y-92019381D01*
X149725000Y-92019381D02*
X149725000Y-91019381D01*
X149629762Y-91162238D01*
X149534524Y-91257476D01*
X149439286Y-91305095D01*
X152519095Y-95194381D02*
X152519095Y-94194381D01*
X153090524Y-95194381D02*
X152661952Y-94622952D01*
X153090524Y-94194381D02*
X152519095Y-94765810D01*
X150010905Y-104973381D02*
X150010905Y-103973381D01*
X150249000Y-103973381D01*
X150391858Y-104021000D01*
X150487096Y-104116238D01*
X150534715Y-104211476D01*
X150582334Y-104401952D01*
X150582334Y-104544810D01*
X150534715Y-104735286D01*
X150487096Y-104830524D01*
X150391858Y-104925762D01*
X150249000Y-104973381D01*
X150010905Y-104973381D01*
X150963286Y-104068619D02*
X151010905Y-104021000D01*
X151106143Y-103973381D01*
X151344239Y-103973381D01*
X151439477Y-104021000D01*
X151487096Y-104068619D01*
X151534715Y-104163857D01*
X151534715Y-104259095D01*
X151487096Y-104401952D01*
X150915667Y-104973381D01*
X151534715Y-104973381D01*
X143787905Y-93289381D02*
X143787905Y-92289381D01*
X144359334Y-93289381D02*
X143930762Y-92717952D01*
X144359334Y-92289381D02*
X143787905Y-92860810D01*
X145311715Y-93289381D02*
X144740286Y-93289381D01*
X145026000Y-93289381D02*
X145026000Y-92289381D01*
X144930762Y-92432238D01*
X144835524Y-92527476D01*
X144740286Y-92575095D01*
X153630334Y-97988381D02*
X153297000Y-97512190D01*
X153058905Y-97988381D02*
X153058905Y-96988381D01*
X153439858Y-96988381D01*
X153535096Y-97036000D01*
X153582715Y-97083619D01*
X153630334Y-97178857D01*
X153630334Y-97321714D01*
X153582715Y-97416952D01*
X153535096Y-97464571D01*
X153439858Y-97512190D01*
X153058905Y-97512190D01*
X154582715Y-97988381D02*
X154011286Y-97988381D01*
X154297000Y-97988381D02*
X154297000Y-96988381D01*
X154201762Y-97131238D01*
X154106524Y-97226476D01*
X154011286Y-97274095D01*
X159218334Y-92654381D02*
X158885000Y-92178190D01*
X158646905Y-92654381D02*
X158646905Y-91654381D01*
X159027858Y-91654381D01*
X159123096Y-91702000D01*
X159170715Y-91749619D01*
X159218334Y-91844857D01*
X159218334Y-91987714D01*
X159170715Y-92082952D01*
X159123096Y-92130571D01*
X159027858Y-92178190D01*
X158646905Y-92178190D01*
X159599286Y-91749619D02*
X159646905Y-91702000D01*
X159742143Y-91654381D01*
X159980239Y-91654381D01*
X160075477Y-91702000D01*
X160123096Y-91749619D01*
X160170715Y-91844857D01*
X160170715Y-91940095D01*
X160123096Y-92082952D01*
X159551667Y-92654381D01*
X160170715Y-92654381D01*
M02*
