G04 #@! TF.FileFunction,Copper,L2,Bot,Signal*
%FSLAX46Y46*%
G04 Gerber Fmt 4.6, Leading zero omitted, Abs format (unit mm)*
G04 Created by KiCad (PCBNEW 4.0.0-rc1-stable) date 30/11/2015 17:10:56*
%MOMM*%
G01*
G04 APERTURE LIST*
%ADD10C,0.100000*%
%ADD11C,0.150000*%
%ADD12C,0.300000*%
%ADD13R,1.300000X1.300000*%
%ADD14C,1.300000*%
%ADD15R,2.000000X2.000000*%
%ADD16C,2.000000*%
%ADD17C,1.699260*%
%ADD18R,1.699260X1.699260*%
%ADD19R,2.540000X2.540000*%
%ADD20C,2.540000*%
%ADD21C,1.651000*%
%ADD22C,0.812800*%
G04 APERTURE END LIST*
D10*
D11*
X169545000Y-116840000D02*
X167005000Y-116840000D01*
X169545000Y-99695000D02*
X167005000Y-99695000D01*
X169545000Y-99695000D02*
X169545000Y-116840000D01*
D12*
X161627142Y-115462857D02*
X161127142Y-115462857D01*
X160912856Y-116248571D02*
X161627142Y-116248571D01*
X161627142Y-114748571D01*
X160912856Y-114748571D01*
X159841428Y-114748571D02*
X159841428Y-115820000D01*
X159912856Y-116034286D01*
X160055713Y-116177143D01*
X160269999Y-116248571D01*
X160412856Y-116248571D01*
X158341428Y-116248571D02*
X159198571Y-116248571D01*
X158769999Y-116248571D02*
X158769999Y-114748571D01*
X158912856Y-114962857D01*
X159055714Y-115105714D01*
X159198571Y-115177143D01*
D11*
X145415000Y-116840000D02*
X167005000Y-116840000D01*
X145415000Y-116205000D02*
X145415000Y-116840000D01*
X166370000Y-99695000D02*
X167005000Y-99695000D01*
X145415000Y-99695000D02*
X166370000Y-99695000D01*
X145415000Y-116205000D02*
X145415000Y-99695000D01*
D13*
X161290000Y-107950000D03*
D14*
X156290000Y-107950000D03*
D15*
X158750000Y-102235000D03*
D16*
X156210000Y-102235000D03*
D17*
X165100520Y-114932460D03*
D18*
X154940520Y-114932460D03*
D19*
X149860000Y-113030000D03*
D20*
X149860000Y-107950000D03*
X149860000Y-102870000D03*
D21*
X163830000Y-104140000D03*
X163830000Y-111760000D03*
X167640000Y-104140000D03*
X167640000Y-111760000D03*
X161925000Y-102235000D03*
X163830000Y-102235000D03*
D22*
X163830000Y-104140000D02*
X167640000Y-104140000D01*
X163830000Y-104140000D02*
X163830000Y-102235000D01*
X161925000Y-102235000D02*
X158750000Y-102235000D01*
X158750000Y-102235000D02*
X158750000Y-106045000D01*
X158750000Y-106045000D02*
X160655000Y-107950000D01*
X160655000Y-107950000D02*
X161290000Y-107950000D01*
X149860000Y-102870000D02*
X153035000Y-102870000D01*
X153670000Y-102235000D02*
X156210000Y-102235000D01*
X153035000Y-102870000D02*
X153670000Y-102235000D01*
X156210000Y-102235000D02*
X156210000Y-107870000D01*
X156210000Y-107870000D02*
X156290000Y-107950000D01*
X167640000Y-111760000D02*
X163830000Y-111760000D01*
X163830000Y-111760000D02*
X164465000Y-111760000D01*
X164465000Y-111760000D02*
X165100520Y-112395520D01*
X165100520Y-112395520D02*
X165100520Y-114932460D01*
X149860000Y-113030000D02*
X154305000Y-113030000D01*
X154940520Y-113665520D02*
X154940520Y-114932460D01*
X154305000Y-113030000D02*
X154940520Y-113665520D01*
M02*
