G04 #@! TF.FileFunction,Drawing*
%FSLAX46Y46*%
G04 Gerber Fmt 4.6, Leading zero omitted, Abs format (unit mm)*
G04 Created by KiCad (PCBNEW 4.0.0-rc1-stable) date 30/11/2015 17:10:56*
%MOMM*%
G01*
G04 APERTURE LIST*
%ADD10C,0.100000*%
%ADD11C,0.300000*%
%ADD12C,0.150000*%
G04 APERTURE END LIST*
D10*
D11*
X151837144Y-95761430D02*
X151908573Y-95690001D01*
X152051430Y-95618572D01*
X152408573Y-95618572D01*
X152551430Y-95690001D01*
X152622859Y-95761430D01*
X152694287Y-95904287D01*
X152694287Y-96047144D01*
X152622859Y-96261430D01*
X151765716Y-97118572D01*
X152694287Y-97118572D01*
X153980001Y-96118572D02*
X153980001Y-97118572D01*
X153622858Y-95547144D02*
X153265715Y-96618572D01*
X154194287Y-96618572D01*
X154837143Y-97047144D02*
X154837143Y-97118572D01*
X154765715Y-97261430D01*
X154694286Y-97332858D01*
X156265715Y-97118572D02*
X155408572Y-97118572D01*
X155837144Y-97118572D02*
X155837144Y-95618572D01*
X155694287Y-95832858D01*
X155551429Y-95975715D01*
X155408572Y-96047144D01*
X156765715Y-95618572D02*
X157694286Y-95618572D01*
X157194286Y-96190001D01*
X157408572Y-96190001D01*
X157551429Y-96261430D01*
X157622858Y-96332858D01*
X157694286Y-96475715D01*
X157694286Y-96832858D01*
X157622858Y-96975715D01*
X157551429Y-97047144D01*
X157408572Y-97118572D01*
X156980000Y-97118572D01*
X156837143Y-97047144D01*
X156765715Y-96975715D01*
X158622857Y-95618572D02*
X158765714Y-95618572D01*
X158908571Y-95690001D01*
X158980000Y-95761430D01*
X159051429Y-95904287D01*
X159122857Y-96190001D01*
X159122857Y-96547144D01*
X159051429Y-96832858D01*
X158980000Y-96975715D01*
X158908571Y-97047144D01*
X158765714Y-97118572D01*
X158622857Y-97118572D01*
X158480000Y-97047144D01*
X158408571Y-96975715D01*
X158337143Y-96832858D01*
X158265714Y-96547144D01*
X158265714Y-96190001D01*
X158337143Y-95904287D01*
X158408571Y-95761430D01*
X158480000Y-95690001D01*
X158622857Y-95618572D01*
X159765714Y-97118572D02*
X159765714Y-96118572D01*
X159765714Y-96261430D02*
X159837142Y-96190001D01*
X159980000Y-96118572D01*
X160194285Y-96118572D01*
X160337142Y-96190001D01*
X160408571Y-96332858D01*
X160408571Y-97118572D01*
X160408571Y-96332858D02*
X160480000Y-96190001D01*
X160622857Y-96118572D01*
X160837142Y-96118572D01*
X160980000Y-96190001D01*
X161051428Y-96332858D01*
X161051428Y-97118572D01*
X161765714Y-97118572D02*
X161765714Y-96118572D01*
X161765714Y-96261430D02*
X161837142Y-96190001D01*
X161980000Y-96118572D01*
X162194285Y-96118572D01*
X162337142Y-96190001D01*
X162408571Y-96332858D01*
X162408571Y-97118572D01*
X162408571Y-96332858D02*
X162480000Y-96190001D01*
X162622857Y-96118572D01*
X162837142Y-96118572D01*
X162980000Y-96190001D01*
X163051428Y-96332858D01*
X163051428Y-97118572D01*
X169545000Y-97790001D02*
X145415000Y-97790001D01*
X169545000Y-99695000D02*
X169545000Y-95090001D01*
X145415000Y-99695000D02*
X145415000Y-95090001D01*
X145415000Y-97790001D02*
X146541504Y-97203580D01*
X145415000Y-97790001D02*
X146541504Y-98376422D01*
X169545000Y-97790001D02*
X168418496Y-97203580D01*
X169545000Y-97790001D02*
X168418496Y-98376422D01*
D12*
X169545000Y-116840000D02*
X167005000Y-116840000D01*
X169545000Y-99695000D02*
X167005000Y-99695000D01*
X169545000Y-99695000D02*
X169545000Y-116840000D01*
D11*
X174661429Y-103481787D02*
X174661429Y-102624644D01*
X174661429Y-103053216D02*
X176161429Y-103053216D01*
X175947143Y-102910359D01*
X175804286Y-102767501D01*
X175732857Y-102624644D01*
X176161429Y-103981787D02*
X176161429Y-104981787D01*
X174661429Y-104338930D01*
X174732857Y-105624643D02*
X174661429Y-105624643D01*
X174518571Y-105553215D01*
X174447143Y-105481786D01*
X174661429Y-107053215D02*
X174661429Y-106196072D01*
X174661429Y-106624644D02*
X176161429Y-106624644D01*
X175947143Y-106481787D01*
X175804286Y-106338929D01*
X175732857Y-106196072D01*
X175661429Y-108338929D02*
X174661429Y-108338929D01*
X176232857Y-107981786D02*
X175161429Y-107624643D01*
X175161429Y-108553215D01*
X176161429Y-109838929D02*
X176161429Y-109124643D01*
X175447143Y-109053214D01*
X175518571Y-109124643D01*
X175590000Y-109267500D01*
X175590000Y-109624643D01*
X175518571Y-109767500D01*
X175447143Y-109838929D01*
X175304286Y-109910357D01*
X174947143Y-109910357D01*
X174804286Y-109838929D01*
X174732857Y-109767500D01*
X174661429Y-109624643D01*
X174661429Y-109267500D01*
X174732857Y-109124643D01*
X174804286Y-109053214D01*
X174661429Y-110553214D02*
X175661429Y-110553214D01*
X175518571Y-110553214D02*
X175590000Y-110624642D01*
X175661429Y-110767500D01*
X175661429Y-110981785D01*
X175590000Y-111124642D01*
X175447143Y-111196071D01*
X174661429Y-111196071D01*
X175447143Y-111196071D02*
X175590000Y-111267500D01*
X175661429Y-111410357D01*
X175661429Y-111624642D01*
X175590000Y-111767500D01*
X175447143Y-111838928D01*
X174661429Y-111838928D01*
X174661429Y-112553214D02*
X175661429Y-112553214D01*
X175518571Y-112553214D02*
X175590000Y-112624642D01*
X175661429Y-112767500D01*
X175661429Y-112981785D01*
X175590000Y-113124642D01*
X175447143Y-113196071D01*
X174661429Y-113196071D01*
X175447143Y-113196071D02*
X175590000Y-113267500D01*
X175661429Y-113410357D01*
X175661429Y-113624642D01*
X175590000Y-113767500D01*
X175447143Y-113838928D01*
X174661429Y-113838928D01*
X173990000Y-99695000D02*
X173990000Y-116840000D01*
X169545000Y-99695000D02*
X176690000Y-99695000D01*
X169545000Y-116840000D02*
X176690000Y-116840000D01*
X173990000Y-116840000D02*
X173403579Y-115713496D01*
X173990000Y-116840000D02*
X174576421Y-115713496D01*
X173990000Y-99695000D02*
X173403579Y-100821504D01*
X173990000Y-99695000D02*
X174576421Y-100821504D01*
D12*
X145415000Y-116840000D02*
X167005000Y-116840000D01*
X145415000Y-116205000D02*
X145415000Y-116840000D01*
X166370000Y-99695000D02*
X167005000Y-99695000D01*
X145415000Y-99695000D02*
X166370000Y-99695000D01*
X145415000Y-116205000D02*
X145415000Y-99695000D01*
M02*
