G04 #@! TF.FileFunction,Legend,Top*
%FSLAX46Y46*%
G04 Gerber Fmt 4.6, Leading zero omitted, Abs format (unit mm)*
G04 Created by KiCad (PCBNEW 4.0.0-rc1-stable) date 30/11/2015 05:12:47 p.m.*
%MOMM*%
G01*
G04 APERTURE LIST*
%ADD10C,0.100000*%
%ADD11C,0.300000*%
%ADD12C,0.150000*%
G04 APERTURE END LIST*
D10*
D11*
X166302858Y-102762857D02*
X165802858Y-102762857D01*
X165802858Y-103548571D02*
X165802858Y-102048571D01*
X166517144Y-102048571D01*
X167088572Y-103548571D02*
X167088572Y-102548571D01*
X167088572Y-102048571D02*
X167017143Y-102120000D01*
X167088572Y-102191429D01*
X167160000Y-102120000D01*
X167088572Y-102048571D01*
X167088572Y-102191429D01*
X168445715Y-102548571D02*
X168445715Y-103548571D01*
X167802858Y-102548571D02*
X167802858Y-103334286D01*
X167874286Y-103477143D01*
X168017144Y-103548571D01*
X168231429Y-103548571D01*
X168374286Y-103477143D01*
X168445715Y-103405714D01*
X169160001Y-102548571D02*
X169160001Y-103548571D01*
X169160001Y-102691429D02*
X169231429Y-102620000D01*
X169374287Y-102548571D01*
X169588572Y-102548571D01*
X169731429Y-102620000D01*
X169802858Y-102762857D01*
X169802858Y-103548571D01*
X171088572Y-103477143D02*
X170945715Y-103548571D01*
X170660001Y-103548571D01*
X170517144Y-103477143D01*
X170445715Y-103334286D01*
X170445715Y-102762857D01*
X170517144Y-102620000D01*
X170660001Y-102548571D01*
X170945715Y-102548571D01*
X171088572Y-102620000D01*
X171160001Y-102762857D01*
X171160001Y-102905714D01*
X170445715Y-103048571D01*
X171802858Y-103548571D02*
X171802858Y-102548571D01*
X171802858Y-102834286D02*
X171874286Y-102691429D01*
X171945715Y-102620000D01*
X172088572Y-102548571D01*
X172231429Y-102548571D01*
D12*
X163560000Y-113510000D02*
X156560000Y-113510000D01*
X156560000Y-113510000D02*
X156560000Y-110010000D01*
X156560000Y-110010000D02*
X163560000Y-110010000D01*
X163560000Y-110010000D02*
X163560000Y-113510000D01*
X161489000Y-104096000D02*
X161489000Y-104296000D01*
X161489000Y-106690000D02*
X161489000Y-106510000D01*
X158261256Y-106379643D02*
G75*
G03X161489000Y-106696000I1727744J1003643D01*
G01*
X158936994Y-106509068D02*
G75*
G03X161040000Y-106510000I1052006J1133068D01*
G01*
X161476220Y-104069274D02*
G75*
G03X158239000Y-104416000I-1497220J-1306726D01*
G01*
X161002889Y-104296747D02*
G75*
G03X158955000Y-104316000I-1013889J-1079253D01*
G01*
X164846520Y-115567460D02*
X166243520Y-115567460D01*
X160401520Y-115567460D02*
X158877520Y-115567460D01*
X160782520Y-114805460D02*
X160782520Y-116329460D01*
X160528520Y-114805460D02*
X160528520Y-116329460D01*
X160274520Y-115567460D02*
X160274520Y-116329460D01*
X160274520Y-116329460D02*
X164846520Y-116329460D01*
X164846520Y-116329460D02*
X164846520Y-114805460D01*
X164846520Y-114805460D02*
X160274520Y-114805460D01*
X160274520Y-114805460D02*
X160274520Y-115567460D01*
X153670000Y-118110000D02*
X146050000Y-118110000D01*
X153670000Y-102870000D02*
X146050000Y-102870000D01*
X152400000Y-118110000D02*
X152400000Y-102870000D01*
X146050000Y-118110000D02*
X146050000Y-102870000D01*
X153670000Y-118110000D02*
X153670000Y-102870000D01*
X171450000Y-105410000D02*
X171450000Y-105918000D01*
X171450000Y-113030000D02*
X171450000Y-112522000D01*
X171450000Y-112522000D02*
X172466000Y-112522000D01*
X172466000Y-112522000D02*
X172466000Y-105918000D01*
X172466000Y-105918000D02*
X170434000Y-105918000D01*
X170434000Y-105918000D02*
X170434000Y-112522000D01*
X170434000Y-112522000D02*
X171450000Y-112522000D01*
X171958000Y-105918000D02*
X172466000Y-106426000D01*
X175260000Y-105410000D02*
X175260000Y-105918000D01*
X175260000Y-113030000D02*
X175260000Y-112522000D01*
X175260000Y-112522000D02*
X176276000Y-112522000D01*
X176276000Y-112522000D02*
X176276000Y-105918000D01*
X176276000Y-105918000D02*
X174244000Y-105918000D01*
X174244000Y-105918000D02*
X174244000Y-112522000D01*
X174244000Y-112522000D02*
X175260000Y-112522000D01*
X175768000Y-105918000D02*
X176276000Y-106426000D01*
X156043334Y-108307143D02*
X155995715Y-108354762D01*
X155852858Y-108402381D01*
X155757620Y-108402381D01*
X155614762Y-108354762D01*
X155519524Y-108259524D01*
X155471905Y-108164286D01*
X155424286Y-107973810D01*
X155424286Y-107830952D01*
X155471905Y-107640476D01*
X155519524Y-107545238D01*
X155614762Y-107450000D01*
X155757620Y-107402381D01*
X155852858Y-107402381D01*
X155995715Y-107450000D01*
X156043334Y-107497619D01*
X156995715Y-108402381D02*
X156424286Y-108402381D01*
X156710000Y-108402381D02*
X156710000Y-107402381D01*
X156614762Y-107545238D01*
X156519524Y-107640476D01*
X156424286Y-107688095D01*
X155471905Y-103322381D02*
X155471905Y-102322381D01*
X155710000Y-102322381D01*
X155852858Y-102370000D01*
X155948096Y-102465238D01*
X155995715Y-102560476D01*
X156043334Y-102750952D01*
X156043334Y-102893810D01*
X155995715Y-103084286D01*
X155948096Y-103179524D01*
X155852858Y-103274762D01*
X155710000Y-103322381D01*
X155471905Y-103322381D01*
X156995715Y-103322381D02*
X156424286Y-103322381D01*
X156710000Y-103322381D02*
X156710000Y-102322381D01*
X156614762Y-102465238D01*
X156519524Y-102560476D01*
X156424286Y-102608095D01*
X162298095Y-103322381D02*
X162298095Y-102322381D01*
X162869524Y-103322381D02*
X162440952Y-102750952D01*
X162869524Y-102322381D02*
X162298095Y-102893810D01*
X160551905Y-118562381D02*
X160551905Y-117562381D01*
X160790000Y-117562381D01*
X160932858Y-117610000D01*
X161028096Y-117705238D01*
X161075715Y-117800476D01*
X161123334Y-117990952D01*
X161123334Y-118133810D01*
X161075715Y-118324286D01*
X161028096Y-118419524D01*
X160932858Y-118514762D01*
X160790000Y-118562381D01*
X160551905Y-118562381D01*
X161504286Y-117657619D02*
X161551905Y-117610000D01*
X161647143Y-117562381D01*
X161885239Y-117562381D01*
X161980477Y-117610000D01*
X162028096Y-117657619D01*
X162075715Y-117752857D01*
X162075715Y-117848095D01*
X162028096Y-117990952D01*
X161456667Y-118562381D01*
X162075715Y-118562381D01*
X145232381Y-111228095D02*
X144232381Y-111228095D01*
X145232381Y-110656666D02*
X144660952Y-111085238D01*
X144232381Y-110656666D02*
X144803810Y-111228095D01*
X145232381Y-109704285D02*
X145232381Y-110275714D01*
X145232381Y-109990000D02*
X144232381Y-109990000D01*
X144375238Y-110085238D01*
X144470476Y-110180476D01*
X144518095Y-110275714D01*
X169362381Y-109386666D02*
X168886190Y-109720000D01*
X169362381Y-109958095D02*
X168362381Y-109958095D01*
X168362381Y-109577142D01*
X168410000Y-109481904D01*
X168457619Y-109434285D01*
X168552857Y-109386666D01*
X168695714Y-109386666D01*
X168790952Y-109434285D01*
X168838571Y-109481904D01*
X168886190Y-109577142D01*
X168886190Y-109958095D01*
X169362381Y-108434285D02*
X169362381Y-109005714D01*
X169362381Y-108720000D02*
X168362381Y-108720000D01*
X168505238Y-108815238D01*
X168600476Y-108910476D01*
X168648095Y-109005714D01*
X175093334Y-116022381D02*
X174760000Y-115546190D01*
X174521905Y-116022381D02*
X174521905Y-115022381D01*
X174902858Y-115022381D01*
X174998096Y-115070000D01*
X175045715Y-115117619D01*
X175093334Y-115212857D01*
X175093334Y-115355714D01*
X175045715Y-115450952D01*
X174998096Y-115498571D01*
X174902858Y-115546190D01*
X174521905Y-115546190D01*
X175474286Y-115117619D02*
X175521905Y-115070000D01*
X175617143Y-115022381D01*
X175855239Y-115022381D01*
X175950477Y-115070000D01*
X175998096Y-115117619D01*
X176045715Y-115212857D01*
X176045715Y-115308095D01*
X175998096Y-115450952D01*
X175426667Y-116022381D01*
X176045715Y-116022381D01*
M02*
