G04 #@! TF.FileFunction,Copper,L2,Bot,Signal*
%FSLAX46Y46*%
G04 Gerber Fmt 4.6, Leading zero omitted, Abs format (unit mm)*
G04 Created by KiCad (PCBNEW 4.0.0-rc1-stable) date 30/11/2015 17:14:41*
%MOMM*%
G01*
G04 APERTURE LIST*
%ADD10C,0.100000*%
%ADD11C,0.300000*%
%ADD12C,0.150000*%
%ADD13R,1.300000X1.300000*%
%ADD14C,1.300000*%
%ADD15R,2.000000X2.000000*%
%ADD16C,2.000000*%
%ADD17C,1.699260*%
%ADD18R,1.699260X1.699260*%
%ADD19R,2.540000X2.540000*%
%ADD20C,2.540000*%
%ADD21C,1.651000*%
%ADD22C,0.812800*%
%ADD23C,0.250000*%
G04 APERTURE END LIST*
D10*
D11*
X172993571Y-118002857D02*
X172493571Y-118002857D01*
X172279285Y-118788571D02*
X172993571Y-118788571D01*
X172993571Y-117288571D01*
X172279285Y-117288571D01*
X171207857Y-117288571D02*
X171207857Y-118360000D01*
X171279285Y-118574286D01*
X171422142Y-118717143D01*
X171636428Y-118788571D01*
X171779285Y-118788571D01*
X168565000Y-118788571D02*
X169422143Y-118788571D01*
X168993571Y-118788571D02*
X168993571Y-117288571D01*
X169136428Y-117502857D01*
X169279286Y-117645714D01*
X169422143Y-117717143D01*
D12*
X154305000Y-104775000D02*
X154305000Y-121920000D01*
X182880000Y-104775000D02*
X154305000Y-104775000D01*
X182880000Y-121920000D02*
X182880000Y-104775000D01*
X154305000Y-121920000D02*
X182880000Y-121920000D01*
D13*
X171450000Y-114935000D03*
D14*
X166450000Y-114935000D03*
D15*
X168910000Y-107950000D03*
D16*
X166370000Y-107950000D03*
D17*
X176530520Y-120012460D03*
D18*
X166370520Y-120012460D03*
D19*
X158605000Y-107950000D03*
D20*
X158605000Y-113030000D03*
X158605000Y-118110000D03*
D21*
X176530000Y-109220000D03*
X176530000Y-116840000D03*
X180340000Y-109220000D03*
X180340000Y-116840000D03*
X174625000Y-107950000D03*
X172085000Y-107950000D03*
D22*
X176530000Y-109220000D02*
X180340000Y-109220000D01*
X176530000Y-108052567D02*
X176427433Y-107950000D01*
X176427433Y-107950000D02*
X174625000Y-107950000D01*
X176530000Y-109220000D02*
X176530000Y-108052567D01*
X168910000Y-107950000D02*
X172085000Y-107950000D01*
X171450000Y-114935000D02*
X171450000Y-113030000D01*
X171450000Y-113030000D02*
X168910000Y-110490000D01*
X168910000Y-110490000D02*
X168910000Y-107950000D01*
X166370000Y-107950000D02*
X166370000Y-114855000D01*
X166370000Y-114855000D02*
X166450000Y-114935000D01*
X166370000Y-107950000D02*
X158605000Y-107950000D01*
X176530000Y-116840000D02*
X180340000Y-116840000D01*
X176530520Y-120012460D02*
X176530520Y-116840520D01*
X176530520Y-116840520D02*
X176530000Y-116840000D01*
D23*
X176530000Y-120011940D02*
X176530520Y-120012460D01*
D22*
X166370520Y-120012460D02*
X160507460Y-120012460D01*
X160507460Y-120012460D02*
X158605000Y-118110000D01*
M02*
