G04 #@! TF.FileFunction,Legend,Top*
%FSLAX46Y46*%
G04 Gerber Fmt 4.6, Leading zero omitted, Abs format (unit mm)*
G04 Created by KiCad (PCBNEW 4.0.0-rc1-stable) date 30/11/2015 05:11:16 p.m.*
%MOMM*%
G01*
G04 APERTURE LIST*
%ADD10C,0.100000*%
%ADD11C,0.150000*%
%ADD12C,0.300000*%
G04 APERTURE END LIST*
D10*
D11*
X127000000Y-112395000D02*
X127000000Y-95885000D01*
X149860000Y-112395000D02*
X127000000Y-112395000D01*
X149860000Y-95885000D02*
X149860000Y-112395000D01*
X127000000Y-95885000D02*
X149860000Y-95885000D01*
D12*
X135445714Y-108628571D02*
X135445714Y-107128571D01*
X136160000Y-108628571D02*
X136160000Y-107128571D01*
X137017143Y-108628571D01*
X137017143Y-107128571D01*
X137517143Y-107128571D02*
X138374286Y-107128571D01*
X137945715Y-108628571D02*
X137945715Y-107128571D01*
X138874286Y-108628571D02*
X138874286Y-107128571D01*
D11*
X141970000Y-106525000D02*
X134970000Y-106525000D01*
X134970000Y-106525000D02*
X134970000Y-103025000D01*
X134970000Y-103025000D02*
X141970000Y-103025000D01*
X141970000Y-103025000D02*
X141970000Y-106525000D01*
X139264000Y-97746000D02*
X139264000Y-97946000D01*
X139264000Y-100340000D02*
X139264000Y-100160000D01*
X136036256Y-100029643D02*
G75*
G03X139264000Y-100346000I1727744J1003643D01*
G01*
X136711994Y-100159068D02*
G75*
G03X138815000Y-100160000I1052006J1133068D01*
G01*
X139251220Y-97719274D02*
G75*
G03X136014000Y-98066000I-1497220J-1306726D01*
G01*
X138777889Y-97946747D02*
G75*
G03X136730000Y-97966000I-1013889J-1079253D01*
G01*
X143256520Y-110487460D02*
X144653520Y-110487460D01*
X138811520Y-110487460D02*
X137287520Y-110487460D01*
X139192520Y-109725460D02*
X139192520Y-111249460D01*
X138938520Y-109725460D02*
X138938520Y-111249460D01*
X138684520Y-110487460D02*
X138684520Y-111249460D01*
X138684520Y-111249460D02*
X143256520Y-111249460D01*
X143256520Y-111249460D02*
X143256520Y-109725460D01*
X143256520Y-109725460D02*
X138684520Y-109725460D01*
X138684520Y-109725460D02*
X138684520Y-110487460D01*
X127000000Y-96520000D02*
X134620000Y-96520000D01*
X127000000Y-111760000D02*
X134620000Y-111760000D01*
X128270000Y-96520000D02*
X128270000Y-111760000D01*
X134620000Y-96520000D02*
X134620000Y-111760000D01*
X127000000Y-96520000D02*
X127000000Y-111760000D01*
X145415000Y-100965000D02*
X145415000Y-101473000D01*
X145415000Y-108585000D02*
X145415000Y-108077000D01*
X145415000Y-108077000D02*
X146431000Y-108077000D01*
X146431000Y-108077000D02*
X146431000Y-101473000D01*
X146431000Y-101473000D02*
X144399000Y-101473000D01*
X144399000Y-101473000D02*
X144399000Y-108077000D01*
X144399000Y-108077000D02*
X145415000Y-108077000D01*
X145923000Y-101473000D02*
X146431000Y-101981000D01*
X148590000Y-100965000D02*
X148590000Y-101473000D01*
X148590000Y-108585000D02*
X148590000Y-108077000D01*
X148590000Y-108077000D02*
X149606000Y-108077000D01*
X149606000Y-108077000D02*
X149606000Y-101473000D01*
X149606000Y-101473000D02*
X147574000Y-101473000D01*
X147574000Y-101473000D02*
X147574000Y-108077000D01*
X147574000Y-108077000D02*
X148590000Y-108077000D01*
X149098000Y-101473000D02*
X149606000Y-101981000D01*
X141438334Y-102592143D02*
X141390715Y-102639762D01*
X141247858Y-102687381D01*
X141152620Y-102687381D01*
X141009762Y-102639762D01*
X140914524Y-102544524D01*
X140866905Y-102449286D01*
X140819286Y-102258810D01*
X140819286Y-102115952D01*
X140866905Y-101925476D01*
X140914524Y-101830238D01*
X141009762Y-101735000D01*
X141152620Y-101687381D01*
X141247858Y-101687381D01*
X141390715Y-101735000D01*
X141438334Y-101782619D01*
X142390715Y-102687381D02*
X141819286Y-102687381D01*
X142105000Y-102687381D02*
X142105000Y-101687381D01*
X142009762Y-101830238D01*
X141914524Y-101925476D01*
X141819286Y-101973095D01*
X134516905Y-97607381D02*
X134516905Y-96607381D01*
X134755000Y-96607381D01*
X134897858Y-96655000D01*
X134993096Y-96750238D01*
X135040715Y-96845476D01*
X135088334Y-97035952D01*
X135088334Y-97178810D01*
X135040715Y-97369286D01*
X134993096Y-97464524D01*
X134897858Y-97559762D01*
X134755000Y-97607381D01*
X134516905Y-97607381D01*
X136040715Y-97607381D02*
X135469286Y-97607381D01*
X135755000Y-97607381D02*
X135755000Y-96607381D01*
X135659762Y-96750238D01*
X135564524Y-96845476D01*
X135469286Y-96893095D01*
X140493095Y-97772381D02*
X140493095Y-96772381D01*
X141064524Y-97772381D02*
X140635952Y-97200952D01*
X141064524Y-96772381D02*
X140493095Y-97343810D01*
X141501905Y-109037381D02*
X141501905Y-108037381D01*
X141740000Y-108037381D01*
X141882858Y-108085000D01*
X141978096Y-108180238D01*
X142025715Y-108275476D01*
X142073334Y-108465952D01*
X142073334Y-108608810D01*
X142025715Y-108799286D01*
X141978096Y-108894524D01*
X141882858Y-108989762D01*
X141740000Y-109037381D01*
X141501905Y-109037381D01*
X142454286Y-108132619D02*
X142501905Y-108085000D01*
X142597143Y-108037381D01*
X142835239Y-108037381D01*
X142930477Y-108085000D01*
X142978096Y-108132619D01*
X143025715Y-108227857D01*
X143025715Y-108323095D01*
X142978096Y-108465952D01*
X142406667Y-109037381D01*
X143025715Y-109037381D01*
X135151905Y-102687381D02*
X135151905Y-101687381D01*
X135723334Y-102687381D02*
X135294762Y-102115952D01*
X135723334Y-101687381D02*
X135151905Y-102258810D01*
X136675715Y-102687381D02*
X136104286Y-102687381D01*
X136390000Y-102687381D02*
X136390000Y-101687381D01*
X136294762Y-101830238D01*
X136199524Y-101925476D01*
X136104286Y-101973095D01*
X143343334Y-101417381D02*
X143010000Y-100941190D01*
X142771905Y-101417381D02*
X142771905Y-100417381D01*
X143152858Y-100417381D01*
X143248096Y-100465000D01*
X143295715Y-100512619D01*
X143343334Y-100607857D01*
X143343334Y-100750714D01*
X143295715Y-100845952D01*
X143248096Y-100893571D01*
X143152858Y-100941190D01*
X142771905Y-100941190D01*
X144295715Y-101417381D02*
X143724286Y-101417381D01*
X144010000Y-101417381D02*
X144010000Y-100417381D01*
X143914762Y-100560238D01*
X143819524Y-100655476D01*
X143724286Y-100703095D01*
X148423334Y-99512381D02*
X148090000Y-99036190D01*
X147851905Y-99512381D02*
X147851905Y-98512381D01*
X148232858Y-98512381D01*
X148328096Y-98560000D01*
X148375715Y-98607619D01*
X148423334Y-98702857D01*
X148423334Y-98845714D01*
X148375715Y-98940952D01*
X148328096Y-98988571D01*
X148232858Y-99036190D01*
X147851905Y-99036190D01*
X148804286Y-98607619D02*
X148851905Y-98560000D01*
X148947143Y-98512381D01*
X149185239Y-98512381D01*
X149280477Y-98560000D01*
X149328096Y-98607619D01*
X149375715Y-98702857D01*
X149375715Y-98798095D01*
X149328096Y-98940952D01*
X148756667Y-99512381D01*
X149375715Y-99512381D01*
M02*
