G04 #@! TF.FileFunction,Legend,Top*
%FSLAX46Y46*%
G04 Gerber Fmt 4.6, Leading zero omitted, Abs format (unit mm)*
G04 Created by KiCad (PCBNEW 4.0.0-rc1-stable) date 30/11/2015 17:11:05*
%MOMM*%
G01*
G04 APERTURE LIST*
%ADD10C,0.100000*%
%ADD11C,0.150000*%
G04 APERTURE END LIST*
D10*
D11*
X146320000Y-113820000D02*
X153320000Y-113820000D01*
X153320000Y-113820000D02*
X153320000Y-117320000D01*
X153320000Y-117320000D02*
X146320000Y-117320000D01*
X146320000Y-117320000D02*
X146320000Y-113820000D01*
X150059000Y-107906000D02*
X150059000Y-108106000D01*
X150059000Y-110500000D02*
X150059000Y-110320000D01*
X146831256Y-110189643D02*
G75*
G03X150059000Y-110506000I1727744J1003643D01*
G01*
X147506994Y-110319068D02*
G75*
G03X149610000Y-110320000I1052006J1133068D01*
G01*
X150046220Y-107879274D02*
G75*
G03X146809000Y-108226000I-1497220J-1306726D01*
G01*
X149572889Y-108106747D02*
G75*
G03X147525000Y-108126000I-1013889J-1079253D01*
G01*
X154686520Y-120647460D02*
X156083520Y-120647460D01*
X150241520Y-120647460D02*
X148717520Y-120647460D01*
X150622520Y-119885460D02*
X150622520Y-121409460D01*
X150368520Y-119885460D02*
X150368520Y-121409460D01*
X150114520Y-120647460D02*
X150114520Y-121409460D01*
X150114520Y-121409460D02*
X154686520Y-121409460D01*
X154686520Y-121409460D02*
X154686520Y-119885460D01*
X154686520Y-119885460D02*
X150114520Y-119885460D01*
X150114520Y-119885460D02*
X150114520Y-120647460D01*
X137160000Y-106680000D02*
X144780000Y-106680000D01*
X137160000Y-121920000D02*
X144780000Y-121920000D01*
X138430000Y-106680000D02*
X138430000Y-121920000D01*
X144780000Y-106680000D02*
X144780000Y-121920000D01*
X137160000Y-106680000D02*
X137160000Y-121920000D01*
X157480000Y-110490000D02*
X157480000Y-110998000D01*
X157480000Y-118110000D02*
X157480000Y-117602000D01*
X157480000Y-117602000D02*
X158496000Y-117602000D01*
X158496000Y-117602000D02*
X158496000Y-110998000D01*
X158496000Y-110998000D02*
X156464000Y-110998000D01*
X156464000Y-110998000D02*
X156464000Y-117602000D01*
X156464000Y-117602000D02*
X157480000Y-117602000D01*
X157988000Y-110998000D02*
X158496000Y-111506000D01*
X161290000Y-110490000D02*
X161290000Y-110998000D01*
X161290000Y-118110000D02*
X161290000Y-117602000D01*
X161290000Y-117602000D02*
X162306000Y-117602000D01*
X162306000Y-117602000D02*
X162306000Y-110998000D01*
X162306000Y-110998000D02*
X160274000Y-110998000D01*
X160274000Y-110998000D02*
X160274000Y-117602000D01*
X160274000Y-117602000D02*
X161290000Y-117602000D01*
X161798000Y-110998000D02*
X162306000Y-111506000D01*
X149653334Y-112927143D02*
X149605715Y-112974762D01*
X149462858Y-113022381D01*
X149367620Y-113022381D01*
X149224762Y-112974762D01*
X149129524Y-112879524D01*
X149081905Y-112784286D01*
X149034286Y-112593810D01*
X149034286Y-112450952D01*
X149081905Y-112260476D01*
X149129524Y-112165238D01*
X149224762Y-112070000D01*
X149367620Y-112022381D01*
X149462858Y-112022381D01*
X149605715Y-112070000D01*
X149653334Y-112117619D01*
X150605715Y-113022381D02*
X150034286Y-113022381D01*
X150320000Y-113022381D02*
X150320000Y-112022381D01*
X150224762Y-112165238D01*
X150129524Y-112260476D01*
X150034286Y-112308095D01*
X147211905Y-106612381D02*
X147211905Y-105612381D01*
X147450000Y-105612381D01*
X147592858Y-105660000D01*
X147688096Y-105755238D01*
X147735715Y-105850476D01*
X147783334Y-106040952D01*
X147783334Y-106183810D01*
X147735715Y-106374286D01*
X147688096Y-106469524D01*
X147592858Y-106564762D01*
X147450000Y-106612381D01*
X147211905Y-106612381D01*
X148735715Y-106612381D02*
X148164286Y-106612381D01*
X148450000Y-106612381D02*
X148450000Y-105612381D01*
X148354762Y-105755238D01*
X148259524Y-105850476D01*
X148164286Y-105898095D01*
X151288095Y-107932381D02*
X151288095Y-106932381D01*
X151859524Y-107932381D02*
X151430952Y-107360952D01*
X151859524Y-106932381D02*
X151288095Y-107503810D01*
X151661905Y-123007381D02*
X151661905Y-122007381D01*
X151900000Y-122007381D01*
X152042858Y-122055000D01*
X152138096Y-122150238D01*
X152185715Y-122245476D01*
X152233334Y-122435952D01*
X152233334Y-122578810D01*
X152185715Y-122769286D01*
X152138096Y-122864524D01*
X152042858Y-122959762D01*
X151900000Y-123007381D01*
X151661905Y-123007381D01*
X152614286Y-122102619D02*
X152661905Y-122055000D01*
X152757143Y-122007381D01*
X152995239Y-122007381D01*
X153090477Y-122055000D01*
X153138096Y-122102619D01*
X153185715Y-122197857D01*
X153185715Y-122293095D01*
X153138096Y-122435952D01*
X152566667Y-123007381D01*
X153185715Y-123007381D01*
X145311905Y-118562381D02*
X145311905Y-117562381D01*
X145883334Y-118562381D02*
X145454762Y-117990952D01*
X145883334Y-117562381D02*
X145311905Y-118133810D01*
X146835715Y-118562381D02*
X146264286Y-118562381D01*
X146550000Y-118562381D02*
X146550000Y-117562381D01*
X146454762Y-117705238D01*
X146359524Y-117800476D01*
X146264286Y-117848095D01*
X155408334Y-114752381D02*
X155075000Y-114276190D01*
X154836905Y-114752381D02*
X154836905Y-113752381D01*
X155217858Y-113752381D01*
X155313096Y-113800000D01*
X155360715Y-113847619D01*
X155408334Y-113942857D01*
X155408334Y-114085714D01*
X155360715Y-114180952D01*
X155313096Y-114228571D01*
X155217858Y-114276190D01*
X154836905Y-114276190D01*
X156360715Y-114752381D02*
X155789286Y-114752381D01*
X156075000Y-114752381D02*
X156075000Y-113752381D01*
X155979762Y-113895238D01*
X155884524Y-113990476D01*
X155789286Y-114038095D01*
X159218334Y-114752381D02*
X158885000Y-114276190D01*
X158646905Y-114752381D02*
X158646905Y-113752381D01*
X159027858Y-113752381D01*
X159123096Y-113800000D01*
X159170715Y-113847619D01*
X159218334Y-113942857D01*
X159218334Y-114085714D01*
X159170715Y-114180952D01*
X159123096Y-114228571D01*
X159027858Y-114276190D01*
X158646905Y-114276190D01*
X159599286Y-113847619D02*
X159646905Y-113800000D01*
X159742143Y-113752381D01*
X159980239Y-113752381D01*
X160075477Y-113800000D01*
X160123096Y-113847619D01*
X160170715Y-113942857D01*
X160170715Y-114038095D01*
X160123096Y-114180952D01*
X159551667Y-114752381D01*
X160170715Y-114752381D01*
M02*
