G04 #@! TF.FileFunction,Copper,L2,Bot,Signal*
%FSLAX46Y46*%
G04 Gerber Fmt 4.6, Leading zero omitted, Abs format (unit mm)*
G04 Created by KiCad (PCBNEW 0.201511300701+6336~38~ubuntu14.04.1-stable) date mar 01 dic 2015 12:15:58 ART*
%MOMM*%
G01*
G04 APERTURE LIST*
%ADD10C,0.100000*%
%ADD11C,0.150000*%
%ADD12C,0.300000*%
%ADD13R,2.540000X2.540000*%
%ADD14C,2.540000*%
%ADD15R,1.300000X1.300000*%
%ADD16C,1.300000*%
%ADD17R,2.000000X2.000000*%
%ADD18C,2.000000*%
%ADD19C,1.699260*%
%ADD20R,1.699260X1.699260*%
%ADD21C,1.651000*%
%ADD22C,0.812800*%
G04 APERTURE END LIST*
D10*
D11*
X197358000Y-106426000D02*
X163830000Y-106426000D01*
X169164000Y-89408000D02*
X169164000Y-106426000D01*
X197358000Y-89408000D02*
X197358000Y-106426000D01*
X197358000Y-89408000D02*
X169164000Y-89408000D01*
D12*
X183256857Y-90570857D02*
X182756857Y-90570857D01*
X182542571Y-91356571D02*
X183256857Y-91356571D01*
X183256857Y-89856571D01*
X182542571Y-89856571D01*
X181899714Y-90356571D02*
X181899714Y-91642286D01*
X181971143Y-91785143D01*
X182114000Y-91856571D01*
X182185428Y-91856571D01*
X181899714Y-89856571D02*
X181971143Y-89928000D01*
X181899714Y-89999429D01*
X181828286Y-89928000D01*
X181899714Y-89856571D01*
X181899714Y-89999429D01*
X180399714Y-91356571D02*
X181256857Y-91356571D01*
X180828285Y-91356571D02*
X180828285Y-89856571D01*
X180971142Y-90070857D01*
X181114000Y-90213714D01*
X181256857Y-90285143D01*
D13*
X172974000Y-92456000D03*
D14*
X172974000Y-97536000D03*
X172974000Y-102616000D03*
D15*
X183388000Y-99822000D03*
D16*
X178388000Y-99822000D03*
D17*
X181610000Y-93980000D03*
D18*
X179070000Y-93980000D03*
D19*
X188214520Y-104645460D03*
D20*
X178054520Y-104645460D03*
D21*
X188214000Y-93599000D03*
X188214000Y-101219000D03*
X193040000Y-93599000D03*
X193040000Y-101219000D03*
X184785000Y-90678000D03*
X184785000Y-93599000D03*
D22*
X184785000Y-93599000D02*
X184785000Y-90678000D01*
X183388000Y-99822000D02*
X183134000Y-99822000D01*
X183134000Y-99822000D02*
X181610000Y-98298000D01*
X181610000Y-98298000D02*
X181610000Y-93980000D01*
X172974000Y-92456000D02*
X177038000Y-92456000D01*
X177800000Y-92456000D02*
X179070000Y-93726000D01*
X177038000Y-92456000D02*
X177800000Y-92456000D01*
X179070000Y-93726000D02*
X179070000Y-93980000D01*
X173249001Y-92180999D02*
X172974000Y-92456000D01*
X178388000Y-99822000D02*
X178388000Y-99742000D01*
X178388000Y-99742000D02*
X179070000Y-99060000D01*
X179070000Y-99060000D02*
X179070000Y-93980000D01*
X188214520Y-104645460D02*
X188214520Y-101219520D01*
X188214520Y-101219520D02*
X188214000Y-101219000D01*
X172974000Y-102616000D02*
X176279060Y-102616000D01*
X176279060Y-102616000D02*
X178054520Y-104645460D01*
X178030979Y-104669001D02*
X178054520Y-104645460D01*
M02*
