G04 #@! TF.FileFunction,Legend,Top*
%FSLAX46Y46*%
G04 Gerber Fmt 4.6, Leading zero omitted, Abs format (unit mm)*
G04 Created by KiCad (PCBNEW 4.0.0-rc1-stable) date 30/11/2015 17:11:16*
%MOMM*%
G01*
G04 APERTURE LIST*
%ADD10C,0.100000*%
%ADD11C,0.150000*%
G04 APERTURE END LIST*
D10*
D11*
X151130000Y-88265000D02*
X149860000Y-88265000D01*
X151130000Y-105410000D02*
X151130000Y-88265000D01*
X149860000Y-105410000D02*
X151130000Y-105410000D01*
X126365000Y-105410000D02*
X126365000Y-88265000D01*
X149860000Y-105410000D02*
X126365000Y-105410000D01*
X126365000Y-88265000D02*
X149860000Y-88265000D01*
X136240000Y-96040000D02*
X143240000Y-96040000D01*
X143240000Y-96040000D02*
X143240000Y-99540000D01*
X143240000Y-99540000D02*
X136240000Y-99540000D01*
X136240000Y-99540000D02*
X136240000Y-96040000D01*
X141169000Y-90126000D02*
X141169000Y-90326000D01*
X141169000Y-92720000D02*
X141169000Y-92540000D01*
X137941256Y-92409643D02*
G75*
G03X141169000Y-92726000I1727744J1003643D01*
G01*
X138616994Y-92539068D02*
G75*
G03X140720000Y-92540000I1052006J1133068D01*
G01*
X141156220Y-90099274D02*
G75*
G03X137919000Y-90446000I-1497220J-1306726D01*
G01*
X140682889Y-90326747D02*
G75*
G03X138635000Y-90346000I-1013889J-1079253D01*
G01*
X144526000Y-102870000D02*
X145923000Y-102870000D01*
X140081000Y-102870000D02*
X138557000Y-102870000D01*
X140462000Y-102108000D02*
X140462000Y-103632000D01*
X140208000Y-102108000D02*
X140208000Y-103632000D01*
X139954000Y-102870000D02*
X139954000Y-103632000D01*
X139954000Y-103632000D02*
X144526000Y-103632000D01*
X144526000Y-103632000D02*
X144526000Y-102108000D01*
X144526000Y-102108000D02*
X139954000Y-102108000D01*
X139954000Y-102108000D02*
X139954000Y-102870000D01*
X134620000Y-104140000D02*
X127000000Y-104140000D01*
X134620000Y-88900000D02*
X127000000Y-88900000D01*
X133350000Y-104140000D02*
X133350000Y-88900000D01*
X127000000Y-104140000D02*
X127000000Y-88900000D01*
X134620000Y-104140000D02*
X134620000Y-88900000D01*
X146050000Y-92710000D02*
X146050000Y-93218000D01*
X146050000Y-100330000D02*
X146050000Y-99822000D01*
X146050000Y-99822000D02*
X147066000Y-99822000D01*
X147066000Y-99822000D02*
X147066000Y-93218000D01*
X147066000Y-93218000D02*
X145034000Y-93218000D01*
X145034000Y-93218000D02*
X145034000Y-99822000D01*
X145034000Y-99822000D02*
X146050000Y-99822000D01*
X146558000Y-93218000D02*
X147066000Y-93726000D01*
X149225000Y-92710000D02*
X149225000Y-93218000D01*
X149225000Y-100330000D02*
X149225000Y-99822000D01*
X149225000Y-99822000D02*
X150241000Y-99822000D01*
X150241000Y-99822000D02*
X150241000Y-93218000D01*
X150241000Y-93218000D02*
X148209000Y-93218000D01*
X148209000Y-93218000D02*
X148209000Y-99822000D01*
X148209000Y-99822000D02*
X149225000Y-99822000D01*
X149733000Y-93218000D02*
X150241000Y-93726000D01*
X135723334Y-94972143D02*
X135675715Y-95019762D01*
X135532858Y-95067381D01*
X135437620Y-95067381D01*
X135294762Y-95019762D01*
X135199524Y-94924524D01*
X135151905Y-94829286D01*
X135104286Y-94638810D01*
X135104286Y-94495952D01*
X135151905Y-94305476D01*
X135199524Y-94210238D01*
X135294762Y-94115000D01*
X135437620Y-94067381D01*
X135532858Y-94067381D01*
X135675715Y-94115000D01*
X135723334Y-94162619D01*
X136675715Y-95067381D02*
X136104286Y-95067381D01*
X136390000Y-95067381D02*
X136390000Y-94067381D01*
X136294762Y-94210238D01*
X136199524Y-94305476D01*
X136104286Y-94353095D01*
X135151905Y-89987381D02*
X135151905Y-88987381D01*
X135390000Y-88987381D01*
X135532858Y-89035000D01*
X135628096Y-89130238D01*
X135675715Y-89225476D01*
X135723334Y-89415952D01*
X135723334Y-89558810D01*
X135675715Y-89749286D01*
X135628096Y-89844524D01*
X135532858Y-89939762D01*
X135390000Y-89987381D01*
X135151905Y-89987381D01*
X136675715Y-89987381D02*
X136104286Y-89987381D01*
X136390000Y-89987381D02*
X136390000Y-88987381D01*
X136294762Y-89130238D01*
X136199524Y-89225476D01*
X136104286Y-89273095D01*
X142398095Y-90152381D02*
X142398095Y-89152381D01*
X142969524Y-90152381D02*
X142540952Y-89580952D01*
X142969524Y-89152381D02*
X142398095Y-89723810D01*
X135151905Y-101417381D02*
X135151905Y-100417381D01*
X135390000Y-100417381D01*
X135532858Y-100465000D01*
X135628096Y-100560238D01*
X135675715Y-100655476D01*
X135723334Y-100845952D01*
X135723334Y-100988810D01*
X135675715Y-101179286D01*
X135628096Y-101274524D01*
X135532858Y-101369762D01*
X135390000Y-101417381D01*
X135151905Y-101417381D01*
X136104286Y-100512619D02*
X136151905Y-100465000D01*
X136247143Y-100417381D01*
X136485239Y-100417381D01*
X136580477Y-100465000D01*
X136628096Y-100512619D01*
X136675715Y-100607857D01*
X136675715Y-100703095D01*
X136628096Y-100845952D01*
X136056667Y-101417381D01*
X136675715Y-101417381D01*
X127531905Y-105227381D02*
X127531905Y-104227381D01*
X128103334Y-105227381D02*
X127674762Y-104655952D01*
X128103334Y-104227381D02*
X127531905Y-104798810D01*
X129055715Y-105227381D02*
X128484286Y-105227381D01*
X128770000Y-105227381D02*
X128770000Y-104227381D01*
X128674762Y-104370238D01*
X128579524Y-104465476D01*
X128484286Y-104513095D01*
X143343334Y-95067381D02*
X143010000Y-94591190D01*
X142771905Y-95067381D02*
X142771905Y-94067381D01*
X143152858Y-94067381D01*
X143248096Y-94115000D01*
X143295715Y-94162619D01*
X143343334Y-94257857D01*
X143343334Y-94400714D01*
X143295715Y-94495952D01*
X143248096Y-94543571D01*
X143152858Y-94591190D01*
X142771905Y-94591190D01*
X144295715Y-95067381D02*
X143724286Y-95067381D01*
X144010000Y-95067381D02*
X144010000Y-94067381D01*
X143914762Y-94210238D01*
X143819524Y-94305476D01*
X143724286Y-94353095D01*
X149677381Y-96686666D02*
X149201190Y-97020000D01*
X149677381Y-97258095D02*
X148677381Y-97258095D01*
X148677381Y-96877142D01*
X148725000Y-96781904D01*
X148772619Y-96734285D01*
X148867857Y-96686666D01*
X149010714Y-96686666D01*
X149105952Y-96734285D01*
X149153571Y-96781904D01*
X149201190Y-96877142D01*
X149201190Y-97258095D01*
X148772619Y-96305714D02*
X148725000Y-96258095D01*
X148677381Y-96162857D01*
X148677381Y-95924761D01*
X148725000Y-95829523D01*
X148772619Y-95781904D01*
X148867857Y-95734285D01*
X148963095Y-95734285D01*
X149105952Y-95781904D01*
X149677381Y-96353333D01*
X149677381Y-95734285D01*
M02*
