G04 #@! TF.FileFunction,Drawing*
%FSLAX46Y46*%
G04 Gerber Fmt 4.6, Leading zero omitted, Abs format (unit mm)*
G04 Created by KiCad (PCBNEW 0.201511251016+6329~38~ubuntu14.04.1-stable) date lun 30 nov 2015 17:33:54 ART*
%MOMM*%
G01*
G04 APERTURE LIST*
%ADD10C,0.100000*%
%ADD11C,0.150000*%
%ADD12C,0.300000*%
G04 APERTURE END LIST*
D10*
D11*
X166624000Y-106426000D02*
X190754000Y-106426000D01*
X166624000Y-89408000D02*
X166624000Y-106426000D01*
X190754000Y-89408000D02*
X190754000Y-106426000D01*
X166624000Y-89408000D02*
X190754000Y-89408000D01*
D12*
X198029429Y-92559858D02*
X198029429Y-91702715D01*
X198029429Y-92131287D02*
X199529429Y-92131287D01*
X199315143Y-91988430D01*
X199172286Y-91845572D01*
X199100857Y-91702715D01*
X199529429Y-93059858D02*
X199529429Y-94059858D01*
X198029429Y-93417001D01*
X198100857Y-94702714D02*
X198029429Y-94702714D01*
X197886571Y-94631286D01*
X197815143Y-94559857D01*
X199529429Y-95631286D02*
X199529429Y-95774143D01*
X199458000Y-95917000D01*
X199386571Y-95988429D01*
X199243714Y-96059858D01*
X198958000Y-96131286D01*
X198600857Y-96131286D01*
X198315143Y-96059858D01*
X198172286Y-95988429D01*
X198100857Y-95917000D01*
X198029429Y-95774143D01*
X198029429Y-95631286D01*
X198100857Y-95488429D01*
X198172286Y-95417000D01*
X198315143Y-95345572D01*
X198600857Y-95274143D01*
X198958000Y-95274143D01*
X199243714Y-95345572D01*
X199386571Y-95417000D01*
X199458000Y-95488429D01*
X199529429Y-95631286D01*
X198029429Y-97559857D02*
X198029429Y-96702714D01*
X198029429Y-97131286D02*
X199529429Y-97131286D01*
X199315143Y-96988429D01*
X199172286Y-96845571D01*
X199100857Y-96702714D01*
X198886571Y-98417000D02*
X198958000Y-98274142D01*
X199029429Y-98202714D01*
X199172286Y-98131285D01*
X199243714Y-98131285D01*
X199386571Y-98202714D01*
X199458000Y-98274142D01*
X199529429Y-98417000D01*
X199529429Y-98702714D01*
X199458000Y-98845571D01*
X199386571Y-98917000D01*
X199243714Y-98988428D01*
X199172286Y-98988428D01*
X199029429Y-98917000D01*
X198958000Y-98845571D01*
X198886571Y-98702714D01*
X198886571Y-98417000D01*
X198815143Y-98274142D01*
X198743714Y-98202714D01*
X198600857Y-98131285D01*
X198315143Y-98131285D01*
X198172286Y-98202714D01*
X198100857Y-98274142D01*
X198029429Y-98417000D01*
X198029429Y-98702714D01*
X198100857Y-98845571D01*
X198172286Y-98917000D01*
X198315143Y-98988428D01*
X198600857Y-98988428D01*
X198743714Y-98917000D01*
X198815143Y-98845571D01*
X198886571Y-98702714D01*
X198029429Y-100774142D02*
X199029429Y-100774142D01*
X198886571Y-100774142D02*
X198958000Y-100845570D01*
X199029429Y-100988428D01*
X199029429Y-101202713D01*
X198958000Y-101345570D01*
X198815143Y-101416999D01*
X198029429Y-101416999D01*
X198815143Y-101416999D02*
X198958000Y-101488428D01*
X199029429Y-101631285D01*
X199029429Y-101845570D01*
X198958000Y-101988428D01*
X198815143Y-102059856D01*
X198029429Y-102059856D01*
X198029429Y-102774142D02*
X199029429Y-102774142D01*
X198886571Y-102774142D02*
X198958000Y-102845570D01*
X199029429Y-102988428D01*
X199029429Y-103202713D01*
X198958000Y-103345570D01*
X198815143Y-103416999D01*
X198029429Y-103416999D01*
X198815143Y-103416999D02*
X198958000Y-103488428D01*
X199029429Y-103631285D01*
X199029429Y-103845570D01*
X198958000Y-103988428D01*
X198815143Y-104059856D01*
X198029429Y-104059856D01*
X197358000Y-89408000D02*
X197358000Y-106426000D01*
X190754000Y-89408000D02*
X200058000Y-89408000D01*
X190754000Y-106426000D02*
X200058000Y-106426000D01*
X197358000Y-106426000D02*
X196771579Y-105299496D01*
X197358000Y-106426000D02*
X197944421Y-105299496D01*
X197358000Y-89408000D02*
X196771579Y-90534504D01*
X197358000Y-89408000D02*
X197944421Y-90534504D01*
X172474715Y-81537429D02*
X172546144Y-81466000D01*
X172689001Y-81394571D01*
X173046144Y-81394571D01*
X173189001Y-81466000D01*
X173260430Y-81537429D01*
X173331858Y-81680286D01*
X173331858Y-81823143D01*
X173260430Y-82037429D01*
X172403287Y-82894571D01*
X173331858Y-82894571D01*
X174617572Y-81894571D02*
X174617572Y-82894571D01*
X174260429Y-81323143D02*
X173903286Y-82394571D01*
X174831858Y-82394571D01*
X175474714Y-82823143D02*
X175474714Y-82894571D01*
X175403286Y-83037429D01*
X175331857Y-83108857D01*
X176903286Y-82894571D02*
X176046143Y-82894571D01*
X176474715Y-82894571D02*
X176474715Y-81394571D01*
X176331858Y-81608857D01*
X176189000Y-81751714D01*
X176046143Y-81823143D01*
X177403286Y-81394571D02*
X178331857Y-81394571D01*
X177831857Y-81966000D01*
X178046143Y-81966000D01*
X178189000Y-82037429D01*
X178260429Y-82108857D01*
X178331857Y-82251714D01*
X178331857Y-82608857D01*
X178260429Y-82751714D01*
X178189000Y-82823143D01*
X178046143Y-82894571D01*
X177617571Y-82894571D01*
X177474714Y-82823143D01*
X177403286Y-82751714D01*
X179260428Y-81394571D02*
X179403285Y-81394571D01*
X179546142Y-81466000D01*
X179617571Y-81537429D01*
X179689000Y-81680286D01*
X179760428Y-81966000D01*
X179760428Y-82323143D01*
X179689000Y-82608857D01*
X179617571Y-82751714D01*
X179546142Y-82823143D01*
X179403285Y-82894571D01*
X179260428Y-82894571D01*
X179117571Y-82823143D01*
X179046142Y-82751714D01*
X178974714Y-82608857D01*
X178903285Y-82323143D01*
X178903285Y-81966000D01*
X178974714Y-81680286D01*
X179046142Y-81537429D01*
X179117571Y-81466000D01*
X179260428Y-81394571D01*
X181546142Y-82894571D02*
X181546142Y-81894571D01*
X181546142Y-82037429D02*
X181617570Y-81966000D01*
X181760428Y-81894571D01*
X181974713Y-81894571D01*
X182117570Y-81966000D01*
X182188999Y-82108857D01*
X182188999Y-82894571D01*
X182188999Y-82108857D02*
X182260428Y-81966000D01*
X182403285Y-81894571D01*
X182617570Y-81894571D01*
X182760428Y-81966000D01*
X182831856Y-82108857D01*
X182831856Y-82894571D01*
X183546142Y-82894571D02*
X183546142Y-81894571D01*
X183546142Y-82037429D02*
X183617570Y-81966000D01*
X183760428Y-81894571D01*
X183974713Y-81894571D01*
X184117570Y-81966000D01*
X184188999Y-82108857D01*
X184188999Y-82894571D01*
X184188999Y-82108857D02*
X184260428Y-81966000D01*
X184403285Y-81894571D01*
X184617570Y-81894571D01*
X184760428Y-81966000D01*
X184831856Y-82108857D01*
X184831856Y-82894571D01*
X166624000Y-83566000D02*
X190754000Y-83566000D01*
X166624000Y-89408000D02*
X166624000Y-80866000D01*
X190754000Y-89408000D02*
X190754000Y-80866000D01*
X190754000Y-83566000D02*
X189627496Y-84152421D01*
X190754000Y-83566000D02*
X189627496Y-82979579D01*
X166624000Y-83566000D02*
X167750504Y-84152421D01*
X166624000Y-83566000D02*
X167750504Y-82979579D01*
M02*
