G04 #@! TF.FileFunction,Copper,L2,Bot,Signal*
%FSLAX46Y46*%
G04 Gerber Fmt 4.6, Leading zero omitted, Abs format (unit mm)*
G04 Created by KiCad (PCBNEW 4.0.0-rc1-stable) date 30/11/2015 17:21:37*
%MOMM*%
G01*
G04 APERTURE LIST*
%ADD10C,0.100000*%
%ADD11C,0.150000*%
%ADD12C,0.300000*%
%ADD13R,1.300000X1.300000*%
%ADD14C,1.300000*%
%ADD15R,2.000000X2.000000*%
%ADD16C,2.000000*%
%ADD17C,1.699260*%
%ADD18R,1.699260X1.699260*%
%ADD19R,2.540000X2.540000*%
%ADD20C,2.540000*%
%ADD21C,1.651000*%
%ADD22C,0.812800*%
G04 APERTURE END LIST*
D10*
D11*
X176784000Y-116332000D02*
X176784000Y-99568000D01*
X150368000Y-116332000D02*
X176784000Y-116332000D01*
X150368000Y-99568000D02*
X150368000Y-116332000D01*
X176784000Y-99568000D02*
X150368000Y-99568000D01*
D12*
X167000857Y-114700857D02*
X166500857Y-114700857D01*
X166286571Y-115486571D02*
X167000857Y-115486571D01*
X167000857Y-113986571D01*
X166286571Y-113986571D01*
X165643714Y-114486571D02*
X165643714Y-115772286D01*
X165715143Y-115915143D01*
X165858000Y-115986571D01*
X165929428Y-115986571D01*
X165643714Y-113986571D02*
X165715143Y-114058000D01*
X165643714Y-114129429D01*
X165572286Y-114058000D01*
X165643714Y-113986571D01*
X165643714Y-114129429D01*
X164143714Y-115486571D02*
X165000857Y-115486571D01*
X164572285Y-115486571D02*
X164572285Y-113986571D01*
X164715142Y-114200857D01*
X164858000Y-114343714D01*
X165000857Y-114415143D01*
D13*
X167005000Y-108585000D03*
D14*
X162005000Y-108585000D03*
D15*
X165100000Y-102235000D03*
D16*
X162560000Y-102235000D03*
D17*
X170815520Y-113662460D03*
D18*
X160655520Y-113662460D03*
D19*
X154940000Y-113030000D03*
D20*
X154940000Y-107950000D03*
X154940000Y-102870000D03*
D21*
X170180000Y-102235000D03*
X170180000Y-109855000D03*
X173863000Y-102235000D03*
X173863000Y-109855000D03*
X168910000Y-100965000D03*
X167005000Y-100965000D03*
D22*
X170180000Y-102235000D02*
X173863000Y-102235000D01*
X165100000Y-102235000D02*
X165735000Y-102235000D01*
X165735000Y-102235000D02*
X167005000Y-100965000D01*
X168910000Y-100965000D02*
X170180000Y-102235000D01*
X167005000Y-108585000D02*
X165100000Y-106680000D01*
X165100000Y-106680000D02*
X165100000Y-102235000D01*
X154940000Y-102870000D02*
X161925000Y-102870000D01*
X161925000Y-102870000D02*
X162560000Y-102235000D01*
X162560000Y-102235000D02*
X162560000Y-108030000D01*
X162560000Y-108030000D02*
X162005000Y-108585000D01*
X170180000Y-109855000D02*
X173863000Y-109855000D01*
X170180000Y-109855000D02*
X170180000Y-113026940D01*
X170180000Y-113026940D02*
X170815520Y-113662460D01*
X154940000Y-113030000D02*
X160023060Y-113030000D01*
X160023060Y-113030000D02*
X160655520Y-113662460D01*
M02*
