G04 #@! TF.FileFunction,Copper,L2,Bot,Signal*
%FSLAX46Y46*%
G04 Gerber Fmt 4.6, Leading zero omitted, Abs format (unit mm)*
G04 Created by KiCad (PCBNEW 4.0.0-rc1-stable) date 11/30/2015 5:11:31 PM*
%MOMM*%
G01*
G04 APERTURE LIST*
%ADD10C,0.100000*%
%ADD11C,0.150000*%
%ADD12C,0.300000*%
%ADD13R,1.300000X1.300000*%
%ADD14C,1.300000*%
%ADD15R,2.000000X2.000000*%
%ADD16C,2.000000*%
%ADD17C,1.699260*%
%ADD18R,1.699260X1.699260*%
%ADD19R,2.540000X2.540000*%
%ADD20C,2.540000*%
%ADD21C,1.651000*%
%ADD22C,0.812800*%
G04 APERTURE END LIST*
D10*
D11*
X157480000Y-103505000D02*
X154305000Y-103505000D01*
X154305000Y-120015000D02*
X157480000Y-120015000D01*
D12*
X153479286Y-112438571D02*
X153479286Y-110938571D01*
X152765000Y-112438571D02*
X152765000Y-110938571D01*
X151907857Y-112438571D01*
X151907857Y-110938571D01*
X151407857Y-110938571D02*
X150550714Y-110938571D01*
X150979285Y-112438571D02*
X150979285Y-110938571D01*
X150050714Y-112438571D02*
X150050714Y-110938571D01*
D11*
X133985000Y-120015000D02*
X133985000Y-103505000D01*
X154305000Y-120015000D02*
X133985000Y-120015000D01*
X157480000Y-103505000D02*
X157480000Y-120015000D01*
X133985000Y-103505000D02*
X154305000Y-103505000D01*
D13*
X148590000Y-113030000D03*
D14*
X143590000Y-113030000D03*
D15*
X147320000Y-106680000D03*
D16*
X144780000Y-106680000D03*
D17*
X153035520Y-118107460D03*
D18*
X142875520Y-118107460D03*
D19*
X137795000Y-106680000D03*
D20*
X137795000Y-111760000D03*
X137795000Y-116840000D03*
D21*
X153035000Y-107950000D03*
X153035000Y-115570000D03*
X155575000Y-107950000D03*
X155575000Y-115570000D03*
X152400000Y-105410000D03*
X150495000Y-105410000D03*
D22*
X153035000Y-107950000D02*
X155575000Y-107950000D01*
X147320000Y-106680000D02*
X148590000Y-105410000D01*
X152400000Y-105410000D02*
X152400000Y-106680000D01*
X152400000Y-106680000D02*
X153035000Y-107950000D01*
X148590000Y-105410000D02*
X150495000Y-105410000D01*
X147320000Y-106680000D02*
X148590000Y-107950000D01*
X148590000Y-107950000D02*
X148590000Y-113030000D01*
X137795000Y-106680000D02*
X144780000Y-106680000D01*
X144780000Y-106680000D02*
X144780000Y-111840000D01*
X144780000Y-111840000D02*
X143590000Y-113030000D01*
X153035000Y-115570000D02*
X155575000Y-115570000D01*
X153035520Y-118107460D02*
X153035000Y-118106940D01*
X153035000Y-118106940D02*
X153035000Y-115570000D01*
X137795000Y-116840000D02*
X139062460Y-118107460D01*
X139062460Y-118107460D02*
X142875520Y-118107460D01*
M02*
