G04 #@! TF.FileFunction,Drawing*
%FSLAX46Y46*%
G04 Gerber Fmt 4.6, Leading zero omitted, Abs format (unit mm)*
G04 Created by KiCad (PCBNEW 4.0.0-rc1-stable) date 11/30/2015 5:11:31 PM*
%MOMM*%
G01*
G04 APERTURE LIST*
%ADD10C,0.100000*%
%ADD11C,0.300000*%
%ADD12C,0.150000*%
G04 APERTURE END LIST*
D10*
D11*
X140839644Y-96888571D02*
X140982501Y-96888571D01*
X141125358Y-96960000D01*
X141196787Y-97031429D01*
X141268216Y-97174286D01*
X141339644Y-97460000D01*
X141339644Y-97817143D01*
X141268216Y-98102857D01*
X141196787Y-98245714D01*
X141125358Y-98317143D01*
X140982501Y-98388571D01*
X140839644Y-98388571D01*
X140696787Y-98317143D01*
X140625358Y-98245714D01*
X140553930Y-98102857D01*
X140482501Y-97817143D01*
X140482501Y-97460000D01*
X140553930Y-97174286D01*
X140625358Y-97031429D01*
X140696787Y-96960000D01*
X140839644Y-96888571D01*
X141982501Y-98245714D02*
X142053929Y-98317143D01*
X141982501Y-98388571D01*
X141911072Y-98317143D01*
X141982501Y-98245714D01*
X141982501Y-98388571D01*
X142768215Y-98388571D02*
X143053930Y-98388571D01*
X143196787Y-98317143D01*
X143268215Y-98245714D01*
X143411073Y-98031429D01*
X143482501Y-97745714D01*
X143482501Y-97174286D01*
X143411073Y-97031429D01*
X143339644Y-96960000D01*
X143196787Y-96888571D01*
X142911073Y-96888571D01*
X142768215Y-96960000D01*
X142696787Y-97031429D01*
X142625358Y-97174286D01*
X142625358Y-97531429D01*
X142696787Y-97674286D01*
X142768215Y-97745714D01*
X142911073Y-97817143D01*
X143196787Y-97817143D01*
X143339644Y-97745714D01*
X143411073Y-97674286D01*
X143482501Y-97531429D01*
X144053929Y-97031429D02*
X144125358Y-96960000D01*
X144268215Y-96888571D01*
X144625358Y-96888571D01*
X144768215Y-96960000D01*
X144839644Y-97031429D01*
X144911072Y-97174286D01*
X144911072Y-97317143D01*
X144839644Y-97531429D01*
X143982501Y-98388571D01*
X144911072Y-98388571D01*
X146268215Y-96888571D02*
X145553929Y-96888571D01*
X145482500Y-97602857D01*
X145553929Y-97531429D01*
X145696786Y-97460000D01*
X146053929Y-97460000D01*
X146196786Y-97531429D01*
X146268215Y-97602857D01*
X146339643Y-97745714D01*
X146339643Y-98102857D01*
X146268215Y-98245714D01*
X146196786Y-98317143D01*
X146053929Y-98388571D01*
X145696786Y-98388571D01*
X145553929Y-98317143D01*
X145482500Y-98245714D01*
X147268214Y-96888571D02*
X147411071Y-96888571D01*
X147553928Y-96960000D01*
X147625357Y-97031429D01*
X147696786Y-97174286D01*
X147768214Y-97460000D01*
X147768214Y-97817143D01*
X147696786Y-98102857D01*
X147625357Y-98245714D01*
X147553928Y-98317143D01*
X147411071Y-98388571D01*
X147268214Y-98388571D01*
X147125357Y-98317143D01*
X147053928Y-98245714D01*
X146982500Y-98102857D01*
X146911071Y-97817143D01*
X146911071Y-97460000D01*
X146982500Y-97174286D01*
X147053928Y-97031429D01*
X147125357Y-96960000D01*
X147268214Y-96888571D01*
X149553928Y-98388571D02*
X149553928Y-97388571D01*
X149553928Y-96888571D02*
X149482499Y-96960000D01*
X149553928Y-97031429D01*
X149625356Y-96960000D01*
X149553928Y-96888571D01*
X149553928Y-97031429D01*
X150268214Y-97388571D02*
X150268214Y-98388571D01*
X150268214Y-97531429D02*
X150339642Y-97460000D01*
X150482500Y-97388571D01*
X150696785Y-97388571D01*
X150839642Y-97460000D01*
X150911071Y-97602857D01*
X150911071Y-98388571D01*
X133985000Y-99060000D02*
X157480000Y-99060000D01*
X133985000Y-104140000D02*
X133985000Y-96360000D01*
X157480000Y-104140000D02*
X157480000Y-96360000D01*
X157480000Y-99060000D02*
X156353496Y-99646421D01*
X157480000Y-99060000D02*
X156353496Y-98473579D01*
X133985000Y-99060000D02*
X135111504Y-99646421D01*
X133985000Y-99060000D02*
X135111504Y-98473579D01*
X164993571Y-116652856D02*
X164993571Y-116509999D01*
X165065000Y-116367142D01*
X165136429Y-116295713D01*
X165279286Y-116224284D01*
X165565000Y-116152856D01*
X165922143Y-116152856D01*
X166207857Y-116224284D01*
X166350714Y-116295713D01*
X166422143Y-116367142D01*
X166493571Y-116509999D01*
X166493571Y-116652856D01*
X166422143Y-116795713D01*
X166350714Y-116867142D01*
X166207857Y-116938570D01*
X165922143Y-117009999D01*
X165565000Y-117009999D01*
X165279286Y-116938570D01*
X165136429Y-116867142D01*
X165065000Y-116795713D01*
X164993571Y-116652856D01*
X166350714Y-115509999D02*
X166422143Y-115438571D01*
X166493571Y-115509999D01*
X166422143Y-115581428D01*
X166350714Y-115509999D01*
X166493571Y-115509999D01*
X164993571Y-114152856D02*
X164993571Y-114438570D01*
X165065000Y-114581427D01*
X165136429Y-114652856D01*
X165350714Y-114795713D01*
X165636429Y-114867142D01*
X166207857Y-114867142D01*
X166350714Y-114795713D01*
X166422143Y-114724285D01*
X166493571Y-114581427D01*
X166493571Y-114295713D01*
X166422143Y-114152856D01*
X166350714Y-114081427D01*
X166207857Y-114009999D01*
X165850714Y-114009999D01*
X165707857Y-114081427D01*
X165636429Y-114152856D01*
X165565000Y-114295713D01*
X165565000Y-114581427D01*
X165636429Y-114724285D01*
X165707857Y-114795713D01*
X165850714Y-114867142D01*
X164993571Y-112652856D02*
X164993571Y-113367142D01*
X165707857Y-113438571D01*
X165636429Y-113367142D01*
X165565000Y-113224285D01*
X165565000Y-112867142D01*
X165636429Y-112724285D01*
X165707857Y-112652856D01*
X165850714Y-112581428D01*
X166207857Y-112581428D01*
X166350714Y-112652856D01*
X166422143Y-112724285D01*
X166493571Y-112867142D01*
X166493571Y-113224285D01*
X166422143Y-113367142D01*
X166350714Y-113438571D01*
X164993571Y-111652857D02*
X164993571Y-111510000D01*
X165065000Y-111367143D01*
X165136429Y-111295714D01*
X165279286Y-111224285D01*
X165565000Y-111152857D01*
X165922143Y-111152857D01*
X166207857Y-111224285D01*
X166350714Y-111295714D01*
X166422143Y-111367143D01*
X166493571Y-111510000D01*
X166493571Y-111652857D01*
X166422143Y-111795714D01*
X166350714Y-111867143D01*
X166207857Y-111938571D01*
X165922143Y-112010000D01*
X165565000Y-112010000D01*
X165279286Y-111938571D01*
X165136429Y-111867143D01*
X165065000Y-111795714D01*
X164993571Y-111652857D01*
X164993571Y-110224286D02*
X164993571Y-110081429D01*
X165065000Y-109938572D01*
X165136429Y-109867143D01*
X165279286Y-109795714D01*
X165565000Y-109724286D01*
X165922143Y-109724286D01*
X166207857Y-109795714D01*
X166350714Y-109867143D01*
X166422143Y-109938572D01*
X166493571Y-110081429D01*
X166493571Y-110224286D01*
X166422143Y-110367143D01*
X166350714Y-110438572D01*
X166207857Y-110510000D01*
X165922143Y-110581429D01*
X165565000Y-110581429D01*
X165279286Y-110510000D01*
X165136429Y-110438572D01*
X165065000Y-110367143D01*
X164993571Y-110224286D01*
X166493571Y-107938572D02*
X165493571Y-107938572D01*
X164993571Y-107938572D02*
X165065000Y-108010001D01*
X165136429Y-107938572D01*
X165065000Y-107867144D01*
X164993571Y-107938572D01*
X165136429Y-107938572D01*
X165493571Y-107224286D02*
X166493571Y-107224286D01*
X165636429Y-107224286D02*
X165565000Y-107152858D01*
X165493571Y-107010000D01*
X165493571Y-106795715D01*
X165565000Y-106652858D01*
X165707857Y-106581429D01*
X166493571Y-106581429D01*
X164465000Y-120015000D02*
X164465000Y-103505000D01*
X156210000Y-120015000D02*
X167165000Y-120015000D01*
X156210000Y-103505000D02*
X167165000Y-103505000D01*
X164465000Y-103505000D02*
X165051421Y-104631504D01*
X164465000Y-103505000D02*
X163878579Y-104631504D01*
X164465000Y-120015000D02*
X165051421Y-118888496D01*
X164465000Y-120015000D02*
X163878579Y-118888496D01*
D12*
X157480000Y-103505000D02*
X154305000Y-103505000D01*
X154305000Y-120015000D02*
X157480000Y-120015000D01*
X133985000Y-120015000D02*
X133985000Y-103505000D01*
X154305000Y-120015000D02*
X133985000Y-120015000D01*
X157480000Y-103505000D02*
X157480000Y-120015000D01*
X133985000Y-103505000D02*
X154305000Y-103505000D01*
M02*
