G04 #@! TF.FileFunction,Legend,Top*
%FSLAX46Y46*%
G04 Gerber Fmt 4.6, Leading zero omitted, Abs format (unit mm)*
G04 Created by KiCad (PCBNEW 4.0.0-rc1-stable) date 11/30/2015 5:11:31 PM*
%MOMM*%
G01*
G04 APERTURE LIST*
%ADD10C,0.100000*%
%ADD11C,0.150000*%
G04 APERTURE END LIST*
D10*
D11*
X157480000Y-103505000D02*
X154305000Y-103505000D01*
X154305000Y-120015000D02*
X157480000Y-120015000D01*
X133985000Y-120015000D02*
X133985000Y-103505000D01*
X154305000Y-120015000D02*
X133985000Y-120015000D01*
X157480000Y-103505000D02*
X157480000Y-120015000D01*
X133985000Y-103505000D02*
X154305000Y-103505000D01*
X149590000Y-114780000D02*
X142590000Y-114780000D01*
X142590000Y-114780000D02*
X142590000Y-111280000D01*
X142590000Y-111280000D02*
X149590000Y-111280000D01*
X149590000Y-111280000D02*
X149590000Y-114780000D01*
X147519000Y-105366000D02*
X147519000Y-105566000D01*
X147519000Y-107960000D02*
X147519000Y-107780000D01*
X144291256Y-107649643D02*
G75*
G03X147519000Y-107966000I1727744J1003643D01*
G01*
X144966994Y-107779068D02*
G75*
G03X147070000Y-107780000I1052006J1133068D01*
G01*
X147506220Y-105339274D02*
G75*
G03X144269000Y-105686000I-1497220J-1306726D01*
G01*
X147032889Y-105566747D02*
G75*
G03X144985000Y-105586000I-1013889J-1079253D01*
G01*
X150241520Y-118107460D02*
X151638520Y-118107460D01*
X145796520Y-118107460D02*
X144272520Y-118107460D01*
X146177520Y-117345460D02*
X146177520Y-118869460D01*
X145923520Y-117345460D02*
X145923520Y-118869460D01*
X145669520Y-118107460D02*
X145669520Y-118869460D01*
X145669520Y-118869460D02*
X150241520Y-118869460D01*
X150241520Y-118869460D02*
X150241520Y-117345460D01*
X150241520Y-117345460D02*
X145669520Y-117345460D01*
X145669520Y-117345460D02*
X145669520Y-118107460D01*
X133985000Y-104140000D02*
X141605000Y-104140000D01*
X133985000Y-119380000D02*
X141605000Y-119380000D01*
X135255000Y-104140000D02*
X135255000Y-119380000D01*
X141605000Y-104140000D02*
X141605000Y-119380000D01*
X133985000Y-104140000D02*
X133985000Y-119380000D01*
X153035000Y-107950000D02*
X153035000Y-108458000D01*
X153035000Y-115570000D02*
X153035000Y-115062000D01*
X153035000Y-115062000D02*
X154051000Y-115062000D01*
X154051000Y-115062000D02*
X154051000Y-108458000D01*
X154051000Y-108458000D02*
X152019000Y-108458000D01*
X152019000Y-108458000D02*
X152019000Y-115062000D01*
X152019000Y-115062000D02*
X153035000Y-115062000D01*
X153543000Y-108458000D02*
X154051000Y-108966000D01*
X155575000Y-107950000D02*
X155575000Y-108458000D01*
X155575000Y-115570000D02*
X155575000Y-115062000D01*
X155575000Y-115062000D02*
X156591000Y-115062000D01*
X156591000Y-115062000D02*
X156591000Y-108458000D01*
X156591000Y-108458000D02*
X154559000Y-108458000D01*
X154559000Y-108458000D02*
X154559000Y-115062000D01*
X154559000Y-115062000D02*
X155575000Y-115062000D01*
X156083000Y-108458000D02*
X156591000Y-108966000D01*
X145883334Y-110847143D02*
X145835715Y-110894762D01*
X145692858Y-110942381D01*
X145597620Y-110942381D01*
X145454762Y-110894762D01*
X145359524Y-110799524D01*
X145311905Y-110704286D01*
X145264286Y-110513810D01*
X145264286Y-110370952D01*
X145311905Y-110180476D01*
X145359524Y-110085238D01*
X145454762Y-109990000D01*
X145597620Y-109942381D01*
X145692858Y-109942381D01*
X145835715Y-109990000D01*
X145883334Y-110037619D01*
X146835715Y-110942381D02*
X146264286Y-110942381D01*
X146550000Y-110942381D02*
X146550000Y-109942381D01*
X146454762Y-110085238D01*
X146359524Y-110180476D01*
X146264286Y-110228095D01*
X142771905Y-105227381D02*
X142771905Y-104227381D01*
X143010000Y-104227381D01*
X143152858Y-104275000D01*
X143248096Y-104370238D01*
X143295715Y-104465476D01*
X143343334Y-104655952D01*
X143343334Y-104798810D01*
X143295715Y-104989286D01*
X143248096Y-105084524D01*
X143152858Y-105179762D01*
X143010000Y-105227381D01*
X142771905Y-105227381D01*
X144295715Y-105227381D02*
X143724286Y-105227381D01*
X144010000Y-105227381D02*
X144010000Y-104227381D01*
X143914762Y-104370238D01*
X143819524Y-104465476D01*
X143724286Y-104513095D01*
X148963095Y-107132381D02*
X148963095Y-106132381D01*
X149534524Y-107132381D02*
X149105952Y-106560952D01*
X149534524Y-106132381D02*
X148963095Y-106703810D01*
X147216905Y-116657381D02*
X147216905Y-115657381D01*
X147455000Y-115657381D01*
X147597858Y-115705000D01*
X147693096Y-115800238D01*
X147740715Y-115895476D01*
X147788334Y-116085952D01*
X147788334Y-116228810D01*
X147740715Y-116419286D01*
X147693096Y-116514524D01*
X147597858Y-116609762D01*
X147455000Y-116657381D01*
X147216905Y-116657381D01*
X148169286Y-115752619D02*
X148216905Y-115705000D01*
X148312143Y-115657381D01*
X148550239Y-115657381D01*
X148645477Y-115705000D01*
X148693096Y-115752619D01*
X148740715Y-115847857D01*
X148740715Y-115943095D01*
X148693096Y-116085952D01*
X148121667Y-116657381D01*
X148740715Y-116657381D01*
X140787381Y-112498095D02*
X139787381Y-112498095D01*
X140787381Y-111926666D02*
X140215952Y-112355238D01*
X139787381Y-111926666D02*
X140358810Y-112498095D01*
X140787381Y-110974285D02*
X140787381Y-111545714D01*
X140787381Y-111260000D02*
X139787381Y-111260000D01*
X139930238Y-111355238D01*
X140025476Y-111450476D01*
X140073095Y-111545714D01*
X153487381Y-111926666D02*
X153011190Y-112260000D01*
X153487381Y-112498095D02*
X152487381Y-112498095D01*
X152487381Y-112117142D01*
X152535000Y-112021904D01*
X152582619Y-111974285D01*
X152677857Y-111926666D01*
X152820714Y-111926666D01*
X152915952Y-111974285D01*
X152963571Y-112021904D01*
X153011190Y-112117142D01*
X153011190Y-112498095D01*
X153487381Y-110974285D02*
X153487381Y-111545714D01*
X153487381Y-111260000D02*
X152487381Y-111260000D01*
X152630238Y-111355238D01*
X152725476Y-111450476D01*
X152773095Y-111545714D01*
X156027381Y-111926666D02*
X155551190Y-112260000D01*
X156027381Y-112498095D02*
X155027381Y-112498095D01*
X155027381Y-112117142D01*
X155075000Y-112021904D01*
X155122619Y-111974285D01*
X155217857Y-111926666D01*
X155360714Y-111926666D01*
X155455952Y-111974285D01*
X155503571Y-112021904D01*
X155551190Y-112117142D01*
X155551190Y-112498095D01*
X155122619Y-111545714D02*
X155075000Y-111498095D01*
X155027381Y-111402857D01*
X155027381Y-111164761D01*
X155075000Y-111069523D01*
X155122619Y-111021904D01*
X155217857Y-110974285D01*
X155313095Y-110974285D01*
X155455952Y-111021904D01*
X156027381Y-111593333D01*
X156027381Y-110974285D01*
M02*
